<svg xmlns="http://www.w3.org/2000/svg" width="67" height="67" viewBox="0 0 67 67">
  <g id="acil_durum_ve" transform="translate(-19.35 -13.88)">
    <g id="Group_9208" data-name="Group 9208" transform="translate(45.052 35.896)">
      <path id="Path_90050" data-name="Path 90050" d="M45.652,45.553A7.952,7.952,0,1,1,53.6,37.6,7.963,7.963,0,0,1,45.652,45.553Z" transform="translate(-37.7 -29.65)" fill="#004290"/>
    </g>
    <g id="Group_9209" data-name="Group 9209" transform="translate(43.762 13.88)">
      <path id="Path_90051" data-name="Path 90051" d="M46.022,32.364a9.242,9.242,0,1,1,9.242-9.242A9.25,9.25,0,0,1,46.022,32.364Z" transform="translate(-36.78 -13.88)" fill="#004290"/>
    </g>
    <g id="Group_9210" data-name="Group 9210" transform="translate(64.963 23.613)">
      <path id="Path_90052" data-name="Path 90052" d="M61.162,39.3A9.242,9.242,0,1,1,70.4,30.062,9.25,9.25,0,0,1,61.162,39.3Z" transform="translate(-51.92 -20.82)" fill="#004290"/>
    </g>
    <g id="Group_9211" data-name="Group 9211" transform="translate(22.211 23.613)">
      <path id="Path_90053" data-name="Path 90053" d="M30.632,39.3a9.242,9.242,0,1,1,9.242-9.242A9.25,9.25,0,0,1,30.632,39.3Z" transform="translate(-21.39 -20.82)" fill="#004290"/>
    </g>
    <g id="Group_9212" data-name="Group 9212" transform="translate(19.35 43.716)">
      <path id="Path_90054" data-name="Path 90054" d="M38.1,64.111H20.444a1.1,1.1,0,0,1-1.094-1.094V41.294a6.016,6.016,0,0,1,1.192-3.73A5.718,5.718,0,0,1,25.1,35.32H37.75a5.78,5.78,0,0,1,5.343,3.6l.07.168a5.625,5.625,0,0,1,.421,2.146v4.221H40.106a1.99,1.99,0,0,0-1.991,1.991V64.111Z" transform="translate(-19.35 -35.32)" fill="#004290"/>
    </g>
    <g id="Group_9213" data-name="Group 9213" transform="translate(62.102 43.73)">
      <path id="Path_90055" data-name="Path 90055" d="M73.006,64.107H55.349V47.461a2,2,0,0,0-1.991-1.991H49.88V41.248A5.625,5.625,0,0,1,50.3,39.1l.07-.168a5.78,5.78,0,0,1,5.343-3.6H68.125a6.162,6.162,0,0,1,3.744,1.178,5.738,5.738,0,0,1,2.258,4.572V63.014A1.139,1.139,0,0,1,73.006,64.107Z" transform="translate(-49.88 -35.33)" fill="#004290"/>
    </g>
    <g id="Group_9214" data-name="Group 9214" transform="translate(40.887 55.847)">
      <path id="Path_90056" data-name="Path 90056" d="M57.856,69H35.824a1.1,1.1,0,0,1-1.094-1.094V46.593a2.554,2.554,0,0,1,.771-1.851,2.635,2.635,0,0,1,1.851-.771h18.54a3.178,3.178,0,0,1,2.679,1.5,2.687,2.687,0,0,1,.393,1.374V67.9A1.1,1.1,0,0,1,57.856,69Z" transform="translate(-34.73 -43.97)" fill="#004290"/>
    </g>
  </g>
</svg>
