<svg xmlns="http://www.w3.org/2000/svg" width="21.473" height="20.004" viewBox="0 0 21.473 20.004">
  <path id="Icon_map-search" data-name="Icon map-search" d="M17.152,13.416a7.45,7.45,0,0,0,1.229-4.081c0-4.361-3.788-7.893-8.47-7.895S1.44,4.973,1.44,9.334s3.793,7.888,8.473,7.888a8.885,8.885,0,0,0,4.38-1.145l5.762,5.367,2.857-2.663Zm-7.24.8A5.078,5.078,0,0,1,4.672,9.339,5.079,5.079,0,0,1,9.912,4.456a5.081,5.081,0,0,1,5.241,4.883,5.082,5.082,0,0,1-5.241,4.878Z" transform="translate(-1.44 -1.44)" fill="#5a5a5a"/>
</svg>
