<svg xmlns="http://www.w3.org/2000/svg" width="67" height="67" viewBox="0 0 67 67">
  <g id="Group_9231" data-name="Group 9231" transform="translate(-636 -690)">
    <g id="environment-sprout-svgrepo-com" transform="translate(648.693 676.843)">
      <path id="Path_90068" data-name="Path 90068" d="M0,97.947Z" transform="translate(0 -53.499)" fill="#004290"/>
      <path id="Path_90058" data-name="Path 90058" d="M88.789,266.442c11.714,0,21.837,6.224,26.624,15.247a26.954,26.954,0,0,1,1.082,6.521,39.928,39.928,0,0,1-56.453-1.088C63.164,275.26,74.852,266.442,88.789,266.442Z" transform="translate(-67.831 -220.671)" fill="none" stroke="#004290" stroke-width="1"/>
      <path id="Path_90059" data-name="Path 90059" d="M107.189,306.539a26.9,26.9,0,0,1,10.257,14.753,36.664,36.664,0,0,1-4.863,4.413l-.033-.084a13.217,13.217,0,0,1-.6-1.6c-.083-.342-.141-.989-.224-1.217-.407.053-.391.289-.773.046-.274-.183-.15-.289-.3-.563-.324-.274-.648-.555-.981-.829-.258-.076-1.239.053-1.654.015-.748-.061-.815-.023-1.255-.571-.781.038-.715.3-1.488-.3-.5-.388-.407-1.012-1.13-.662-.025.571.274.692.549.959.2.205.441.342.549.609.008.008.058.266.066.3.707.046.881-.266,1.263-.533.382.327.008.38.557.639.432.2.349.084.632.411.141.434-.973,1.621-1.338,1.834-.283.167-.432.069-.69.259-.374.289.05.251-.615.472a8.887,8.887,0,0,1-2.153.776c-.158-.4-.324-.807-.482-1.217-.474-1.392-.457-.852-.939-1.575-.224-.312-.133-.51-.283-.791-.108-.205-.266-.3-.407-.555-.216-.4-.474-1.012-.973-.951-.108.312.465,1.362.607,1.621s.366.365.432.738c.091.5-.017.441.283.784.632.7-.025.578.956,1.263.74.51.549.662.856,1.354.482.122,1.92-.464,2.161-.289.291.479-.341,1.24-.5,1.659-.532,1.392-1.455,1.37-2.161,2.442a10.326,10.326,0,0,0-.923,1.339,40.687,40.687,0,0,1-7.946,1.78c-.008-.023-.008-.053-.017-.084a3.757,3.757,0,0,0-.815-2.153c-.64-.685-.557-.441-.349-1.575.266-1.294-.341-.966-1.189-1-.416-1.179-1.23-.6-2.045-.259-.507.213-.7-.061-1.28.015-1.288.16-.274.662-1.995-.578-.715-.517-.233-.259-.665-.905a9.755,9.755,0,0,0-.773-.784c-.648-.746.125-1.507.008-2.359-.2-1.59-.482-.205.49-2.13.507-1.027,1.288-1.035,1.488-1.491.166-.411.058-.7.374-1.073.283-.3.69-.243.848-.723.224-.586-.208-.662-.682-.677-.2-.616-.2-.464-.05-1.035.083-.319.008-.472.083-.791.191-.8,1.671-.008,2.095-.335a.861.861,0,0,0,0-1c-.241-.327-.549-.282-.707-.594.357-.221.091-.03.407-.091.366-.076.324-.175.756-.251.391-.068.632-.4,1.014-.616.54-.32.283-.6.939-.7,1.047-.167.366-.137.482-1.035.158-.053.308-.122.465-.183.332.4-.083.236.316.5.108-.053.224-.114.341-.167-.058-.434-.274-.35-.416-.883-.524.076-.707.479-1.122.335s-.424-.67-.407-1.118c.15-.335.906-.51,1.2-.594.474-.145.407-.434.84-.829.565-.517.15.008.424-.662.623-.023.332-.046.7-.213l.017-.008.042-.015c.216-.091.5-.114.781-.2a2.773,2.773,0,0,1,2.219.122c.582.221,2.352.228,2.485.905-.424.411-.831.106-1.446.145.116.525.158.525.682.67.083-.251-.042-.152.1-.312.175.038.341.061.507.091.175-.533.366-.456.948-.517-.091-.365-.2-.266.017-.555.6.053.116.008.407.441.416-.046.823-.472,1.4-.525.357-.038.341.091.848.038.416-.038.4-.183.815-.023.15-.259,0-.251.366-.312.565-.091,1.056.228,1.6.3-.407-.456-.79-.365-.291-1.126.632-.114.69-.038.964.4.158-.084.224-.16.3-.2ZM81.936,332.971a39.285,39.285,0,0,1-13.1-4.672,2.134,2.134,0,0,0-.05-.487,1.835,1.835,0,0,0-.54-.883c-.4.16-.208.251-.416.556-.324-.167-.64-.335-.956-.5-.973-.86-.457-.236-.731-.8-.59-1.179-1.147-.517-1.845-1.1-.308-.243-.366-.616-.873-.555a36.05,36.05,0,0,1-3.383-3.234,26.625,26.625,0,0,1,8.8-13.619,3.576,3.576,0,0,0,1.139.023c.125-.205.2-.388.416-.464a1.036,1.036,0,0,1,.332-.03c.017.106.05.205.075.312,0,.008.017.076.008.061.008-.015.017.038.025.061.6-.32.091-.327.416-.9-.5-.091-.432-.038-.748-.327a1.825,1.825,0,0,1,1.322-.381c-.025.274-.166.274-.058.5.341-.2.574-.715,1.122-.616a3.418,3.418,0,0,0,.341.19,3.379,3.379,0,0,1-1.081.4c-.158,1.507.524.243.291,1.278a1.256,1.256,0,0,0,.956-.578c-.15-.183-.366-.183-.49-.4a1.016,1.016,0,0,1,.582-.609,1.721,1.721,0,0,1,.69-.129c3.009.023,1.579.145,2.5.533.208.084.574.122.7.289.191.266.008.51.308.723.266.183.3-.008.657.4a.641.641,0,0,1-.623.472c-.507.008-.208-.312-.756-.266.008.472.524.654.05.905-.416.228-.15-.084-.465.076-.008.008-.042.023-.05.03a.265.265,0,0,0-.05.046c-.058.053-.108.107-.15.152-.756-.19-.615-.106-1.072-.563a.451.451,0,0,0-.5-.19c-.191.008-.432.084-.615-.069.366-.426.549-.015,1.089-.266a7.188,7.188,0,0,0,.781-.563c-.158-.335-.017-.053-.258-.266-.532-.495-.682-.365-1.4-.365a4.467,4.467,0,0,1-.956.982.951.951,0,0,1-.831.008c.158.594.574.137.615.86-.274-.046-.416-.175-.7-.084-.607.205-.066.19-.017.3,0,.008.283.03,0,.129-.316.106-.05-.053-.648-.38.083-.137.166-.282.258-.426a12.417,12.417,0,0,0-1.679.616,7.667,7.667,0,0,0-1.638.951c-.008.517.091.175.15.791.881.046.6.289,1.471.517a5.725,5.725,0,0,0,.657.122c0,.388-.382.677-.116,1.08.615.4.632-.373.781-.867,2.078-.4,1.081-.959,1.613-2.009a2.15,2.15,0,0,1,.357-.5c.158.008.815.068.956.1.474.076.216.183.731.388-.008.373-.216.86.391.768.465-.076.357-.411.923-.495a4.3,4.3,0,0,1,.3,1.438c1.363.487.756.883.49,1.788.175.076.349.145.532.213-.008.266-.017.517-.025.776-.025,0-1.455-.282-1.554-.312.216-.571.615-.578.873-1.156-.507.084-.474.228-.84.335a5.392,5.392,0,0,1-.939.068c-.125.373-.008-.327.025.152.017.183.116.008-.017.2-.474-.2-.308-.67-1.189-.236.2.084.4.16.607.236-.025.533-.075.129-.2.487-.3.905.823.342,1.114.3-.075.479-.4.479-.848.609-.5.137-.648.327-1.047.411,0-.571-.091-.091.183-.487a3.408,3.408,0,0,0-1.064.35l-.042.015c-.482.183-.557.205-.615.776a2.9,2.9,0,0,0-1.189.525c-.291.259-.59.51-.873.761-.025.023-.05.038-.066.053.108.715,0,.73-.474,1a5.214,5.214,0,0,0-.9.525c-1.18.974-.615.517-.549,2.191-.249-.069-.482-.145-.707-.221-.183-1.111.066-.738-.906-1-1.047-.274-.906.19-1.338.274-.482.1-.715-.4-1.421.015-.391.243-.756.4-.848.829a4.816,4.816,0,0,0-.332,1.476c.066,1.56,1.613,1.651,2.012.921.266-.487.2-.746,1.056-.624a1.851,1.851,0,0,1-.158,1.042c-.075.19-.283.525-.183.784.615.228.632-.2,1.446.243.058.738-.366,1.575.258,2,.482.327.507.038.939-.038.474-.076.391.19.823.259.249-.274.141-.107.3-.441.283-.586.357-.312,1.031-.67.066-.038.125-.068.191-.114.075.145.158.282.233.426.49-.533.549-.015,1.114.129a2.291,2.291,0,0,0,.549.084c.416.008.457-.175,1.014.008a1.9,1.9,0,0,0,.224.069c.008,0,.042.015.042.03s.042.03.05.038a2.252,2.252,0,0,1,.183.3l1.155,1.012c.748.274.748-.236,1.6.517.357.312.2.3.4.708.025.061.083.122.125.2.075.19.158.365.249.548.391.464.914.175,1.455.654.308.274.075.19.765.3,1.072.16.657.069,1.463.631.308.205.391.091.682.266a1.141,1.141,0,0,1,.125,1.278ZM69.169,307.414c.183-.144.357-.289.54-.426l.017.03a.436.436,0,0,1,.108.2c-.482.107-.482.183-.665.205v-.008Zm25.269,8.035a6.692,6.692,0,0,1,.773.426c.249.616-.066.32.416.966.274.342.216.594.5.791.524-.061.066.076.391-.213a3.244,3.244,0,0,0,.266-.3c-.166-.236-.274-.259-.424-.5.582-.715.84-.3.981.167.366,1.309.939.928,1.413.867s.066.015.5.114c.416.1.216,0,.507-.068.989-.221.224,1.537.125,1.735-.54.061-.432-.046-.823-.084-.781-.076.05.434-1.8-.122-1.779-.517-1.4-.639-1.771.495a2.364,2.364,0,0,1-.765-.213,2.6,2.6,0,0,0-.283-.091l-.017-.008c-.15-.046,0-.008-.308-.274-.274-.236-.948-.289-1.421-.517,0-.373.357-.685-.075-1.126a22.464,22.464,0,0,0-2.477.106c-.648.122-.765.631-1.662.517-.49-.061-.324-.023-.441-.282.158-.145,0-.068.274-.16a.934.934,0,0,1,.249-.03c1.455-.2.707-.875,1.613-1.522.756-.555.158.008.574-.662.507-.038.441.19.881-.008.357-.167.249-.312.756-.327.457.418.357.662,1.1.982a1.475,1.475,0,0,1,.665.426c.341.441.05.3.183.6a.382.382,0,0,1,.1-.038l.017-.008c.4-.175-.2-.228.441-.746-.191-.122-.324-.213-.441-.274l-.017-.008c-.5-.266-.3-.023-.948-.753a.566.566,0,0,1-.208-.54c.465-.076.549.228.964.571a1.633,1.633,0,0,0,.191.129l.017.015Zm8.736-.677c.066.845.615,1.172,1.006,1.56-.05.4-.15.3-.141.86a1.556,1.556,0,0,0,1.4.342c.083-.677-.15-.647-.382-1.111a1.162,1.162,0,0,1,.158-.137c.166-.205.083.084.166-.266-.441-.129-1.164-.548-1.222-1.1.216-.16.15-.061.308-.16.349-.205.083.114.291-.243-.183-.32-.374-.373-.815-.213a5.873,5.873,0,0,0-.8.472Zm-3.865.221c-.291-.373-.274-.563-.84-.578a2.684,2.684,0,0,0-.615.89c-.191.51-.058.16-.042.715a.189.189,0,0,0,0,.069c-.008.335-.091-.061-.042.243.441-.084.108-.076.432-.175a5.5,5.5,0,0,1,1.538-.3c.648.137,1.2.609,1.937.137-.042-.6-.831-.829-1.38-1.1.025-.555.191-.114.15-.654a.942.942,0,0,0-.482.038c-.424.175-.191.221-.191.282.017.3.424-.061-.008.3a.923.923,0,0,1-.474.114Zm-11.039-4.2c-.017.974.349.647.7,1.126-.158.411-.191.091-.366.51-.158.358.042.038-.066.654a9.82,9.82,0,0,0,1.039-.107c.507-.038.5-.084.682-.563-.283-.32-.565-.639-.864-.959-.366-.51,0-.16-.116-.586-.083-.152-.158-.3-.233-.457A1.462,1.462,0,0,0,88.27,310.792Z" transform="translate(-67.831 -254.841)" fill="#004290"/>
      <path id="Path_90060" data-name="Path 90060" d="M146.581,249.587a1.169,1.169,0,0,1,.426.076,1.443,1.443,0,0,1,1.385-1.02,1.71,1.71,0,0,1,.4.053,1.94,1.94,0,0,1,3.454-.746,2.1,2.1,0,0,1,2.557-1.476,2.059,2.059,0,0,1,3.774-.814,2.287,2.287,0,0,1,3.371.236,2.57,2.57,0,0,1,4.953.662,1.841,1.841,0,0,1,.358-.038,1.82,1.82,0,0,1,1.491.776,2.155,2.155,0,0,1,3.462,1.719v.106a.969.969,0,0,1,.152-.008,1.3,1.3,0,1,1-1.217,1.758,2.114,2.114,0,0,1-1.088.289,2.148,2.148,0,0,1-1.948-1.233,1.846,1.846,0,0,1-.845.205,1.812,1.812,0,0,1-1.659-1.08,2.564,2.564,0,0,1-3.371-.791,2.282,2.282,0,0,1-4.093.1,2.043,2.043,0,0,1-1.773.388,2.094,2.094,0,0,1-3.812.913,1.94,1.94,0,0,1-2.853,1.065,1.438,1.438,0,0,1-1.978.594,1.225,1.225,0,1,1-1.1-1.758Zm12,.494a.548.548,0,1,1-.548.548A.546.546,0,0,1,158.579,250.082Zm9.054,1.811a.639.639,0,1,1-.639.639A.638.638,0,0,1,167.634,251.893Zm-17.233.6a.534.534,0,0,1,.533.533.529.529,0,1,1-.533-.533Zm12.166-2.343a1.134,1.134,0,1,1-1.134,1.134A1.136,1.136,0,0,1,162.566,250.15Z" transform="translate(-138.614 -201.458)" fill="#004290"/>
      <path id="Path_90061" data-name="Path 90061" d="M247.473,34.219c-23.229-1.864-16.944,19.759-6.094,13.026C246.355,44.156,244.673,36.243,247.473,34.219Z" transform="translate(-214.3 -19.483)" fill="#004290"/>
      <path id="Path_90062" data-name="Path 90062" d="M255.145,42.222c-12.585,2.115-10.272,19.957-10.036,29.133-1.149-.243-1,1-1.507.472C243.215,63.259,242,43.6,255.145,42.222Z" transform="translate(-224.186 -26.512)" fill="#004290"/>
      <path id="Path_90063" data-name="Path 90063" d="M158.957,115.5c15-2.123,11.755,10.873,5.044,7.281C160.707,121.011,160.928,116.477,158.957,115.5Z" transform="translate(-148.426 -89.757)" fill="#004290"/>
      <path id="Path_90064" data-name="Path 90064" d="M196.9,146l-.365.023c-1.331-9.153-7.707-9.876-7.73-9.883C193.4,136.852,196.553,140.23,196.9,146Z" transform="translate(-174.882 -107.842)" fill="#004290"/>
      <path id="Path_90065" data-name="Path 90065" d="M270.391,161.065c-15-2.123-11.755,10.873-5.044,7.281C268.641,166.581,268.42,162.047,270.391,161.065Z" transform="translate(-238.644 -129.218)" fill="#004290"/>
      <path id="Path_90066" data-name="Path 90066" d="M246.352,184.364l.373.068c2.572-9.32,9.29-9.237,9.313-9.244C251.183,175.325,247.471,178.422,246.352,184.364Z" transform="translate(-226.54 -141.651)" fill="#004290"/>
      <path id="Path_90067" data-name="Path 90067" d="M150.322,255.881a1.224,1.224,0,0,1,.411.069,1.4,1.4,0,0,1,1.339-.989,1.276,1.276,0,0,1,.38.053,1.874,1.874,0,0,1,3.34-.723,2.036,2.036,0,0,1,1.963-1.491,1.969,1.969,0,0,1,.517.069,2,2,0,0,1,3.66-.791,2.222,2.222,0,0,1,3.272.236,2.487,2.487,0,0,1,4.793.639,1.777,1.777,0,0,1,1.78.723,2.091,2.091,0,0,1,3.355,1.666v.106a.916.916,0,0,1,.145-.008,1.263,1.263,0,1,1-1.179,1.712,2.1,2.1,0,0,1-2.944-.913,1.717,1.717,0,0,1-.814.2,1.761,1.761,0,0,1-1.605-1.05,2.5,2.5,0,0,1-3.264-.768,2.217,2.217,0,0,1-3.972.091,1.987,1.987,0,0,1-1.248.434,2.425,2.425,0,0,1-.472-.053,2.032,2.032,0,0,1-3.7.89,1.878,1.878,0,0,1-1.788,1.309,1.84,1.84,0,0,1-.974-.274,1.4,1.4,0,0,1-1.24.753,1.36,1.36,0,0,1-.677-.175,1.189,1.189,0,1,1-1.073-1.7Z" transform="translate(-141.854 -207.058)" fill="#004290"/>
    </g>
    <rect id="Rectangle_142763" data-name="Rectangle 142763" width="67" height="67" transform="translate(636 690)" fill="none"/>
  </g>
</svg>
