<svg xmlns="http://www.w3.org/2000/svg" width="67" height="67" viewBox="0 0 67 67">
  <path id="open-book-icon" d="M6.543,51.068q.109-24.135.213-48.2A2.154,2.154,0,0,1,8.179.694h0c4.58-1.216,11.8-.91,16.7,1.487A20.364,20.364,0,0,1,33.6,10.274a21.128,21.128,0,0,1,8.724-7.746C46.957.277,53.979-.264,59.012.694a2.11,2.11,0,0,1,1.51,2.181h0V51.27A2.568,2.568,0,0,1,60,52.847a1.581,1.581,0,0,1-1.243.646,1.517,1.517,0,0,1-.4-.063,23.229,23.229,0,0,0-12.786,1.521,36.731,36.731,0,0,0-8.6,5.738,30.249,30.249,0,0,1,11.581-2.154A54.567,54.567,0,0,1,63.5,60.954V10.309h1.75A2.034,2.034,0,0,1,67,12.539V63.872a2.034,2.034,0,0,1-1.75,2.23,1.4,1.4,0,0,1-.545-.118,53.245,53.245,0,0,0-16.177-3.008A27.649,27.649,0,0,0,34.481,66.63a1.521,1.521,0,0,1-1.985,0,27.636,27.636,0,0,0-14.046-3.654A53.258,53.258,0,0,0,2.312,66a1.4,1.4,0,0,1-.545.118,1.581,1.581,0,0,1-1.252-.651A2.575,2.575,0,0,1,0,63.872V12.539a2.034,2.034,0,0,1,1.75-2.23H3.5V60.954a54.566,54.566,0,0,1,14.945-2.418,30.246,30.246,0,0,1,12.383,2.48,25.475,25.475,0,0,0-8.473-5.863c-3.817-1.6-9.64-2.133-13.9-1.667a1.512,1.512,0,0,1-1.291-.508,2.472,2.472,0,0,1-.623-1.528q-.008-.191,0-.382ZM40.152,44.74a1.036,1.036,0,0,1-1.294.158,1.667,1.667,0,0,1-.708-1.39,1.723,1.723,0,0,1,.64-1.443,25.71,25.71,0,0,1,6.434-3.752,23.917,23.917,0,0,1,7.088-1.855,1.408,1.408,0,0,1,1.317,1.5,1.5,1.5,0,0,1-1.18,1.678,22.022,22.022,0,0,0-6.428,1.709,23.3,23.3,0,0,0-5.867,3.39ZM40.261,32.4a1.1,1.1,0,0,1-1.726-.49,1.869,1.869,0,0,1,.384-2.2,26.248,26.248,0,0,1,6.4-3.682,24.085,24.085,0,0,1,6.968-1.82,1.428,1.428,0,0,1,1.274,1.511A1.522,1.522,0,0,1,52.425,27.4a21.95,21.95,0,0,0-6.341,1.667A23.877,23.877,0,0,0,40.261,32.4Zm.033-12.3a1.108,1.108,0,0,1-1.731-.5,1.874,1.874,0,0,1,.39-2.206,26.139,26.139,0,0,1,6.39-3.661,23.9,23.9,0,0,1,6.946-1.806,1.408,1.408,0,0,1,1.317,1.5,1.5,1.5,0,0,1-1.18,1.678,21.971,21.971,0,0,0-6.319,1.66A23.832,23.832,0,0,0,40.294,20.1ZM28.211,42.065a1.723,1.723,0,0,1,.64,1.443,1.667,1.667,0,0,1-.708,1.39,1.036,1.036,0,0,1-1.294-.158A23.318,23.318,0,0,0,21,41.349a22.022,22.022,0,0,0-6.428-1.709A1.5,1.5,0,0,1,13.4,37.956a1.4,1.4,0,0,1,1.322-1.5,23.917,23.917,0,0,1,7.088,1.855,25.71,25.71,0,0,1,6.434,3.751ZM28.08,29.713a1.88,1.88,0,0,1,.373,2.213,1.106,1.106,0,0,1-1.737.476,23.877,23.877,0,0,0-5.823-3.335A21.95,21.95,0,0,0,14.553,27.4a1.516,1.516,0,0,1-1.167-1.7c.047-.881.645-1.546,1.336-1.487a24.085,24.085,0,0,1,6.968,1.82,26.248,26.248,0,0,1,6.4,3.682ZM28.047,17.4a1.712,1.712,0,0,1,.652,1.428,1.682,1.682,0,0,1-.689,1.4,1.033,1.033,0,0,1-1.293-.126A23.831,23.831,0,0,0,20.9,16.777a21.971,21.971,0,0,0-6.319-1.66,1.5,1.5,0,0,1-1.18-1.678,1.408,1.408,0,0,1,1.317-1.5,23.9,23.9,0,0,1,6.946,1.806,26.139,26.139,0,0,1,6.39,3.661ZM57.011,4.863c-4.046-.486-9.847.083-13.484,1.841a17.645,17.645,0,0,0-8.25,8.2V56.772a39.588,39.588,0,0,1,9.117-6.016,27.417,27.417,0,0,1,12.617-1.994ZM31.777,56.341v-41.5a16.9,16.9,0,0,0-8.141-8.5c-3.817-1.855-9.678-2.272-13.391-1.6l-.2,44.156a34.836,34.836,0,0,1,13.369,2.022,28.213,28.213,0,0,1,8.359,5.419Z" transform="translate(0 0.002)" fill="#004290"/>
</svg>
