<svg xmlns="http://www.w3.org/2000/svg" width="67" height="67" viewBox="0 0 67 67">
  <path id="hand-money-icon" d="M13.691,58.561V34.321h9.515c4.051.819,8.064,3.319,12.1,6.25h7.388c3.348.231,5.1,4.119,1.848,6.669-2.59,2.181-6,2.056-9.52,1.7-2.415-.138-2.519,3.575,0,3.594.878.081,1.832-.156,2.661-.156,4.362,0,7.977-.963,10.18-4.925l1.09-2.963,11.014-6.25c5.5-2.075,9.416,4.519,5.36,9.107A141.067,141.067,0,0,1,40.834,63.88c-6.069,4.232-12.137,4.088-18.189,0ZM27.595,0,63.1,12.288,57.764,33.653l-2.5-.438,3.817-15.626.055-.2a2.862,2.862,0,0,0-1.7-3.425l-1.2-.375v-.044l-5.649-1.713-23.8-8.613ZM21.723,4.313,57.251,16.6l-5.36,21.364L16.385,25.677Zm12.372,13.6a4.026,4.026,0,0,1,6.238-.22,5.592,5.592,0,0,1,.186,7.151,4.026,4.026,0,0,1-6.238.206,5.593,5.593,0,0,1-.185-7.138ZM26.9,9.526,50.4,17.876a3.381,3.381,0,0,0,1.947,4.057l-2.083,8.451a2.833,2.833,0,0,0-3.539,2.256l-23.5-8.351a3.379,3.379,0,0,0-1.957-4.057l2.1-8.451A2.541,2.541,0,0,0,25.55,11.5a3.242,3.242,0,0,0,1.364-1.971ZM0,32.015H10.829V61H0Z" fill="#004290" fill-rule="evenodd"/>
</svg>
