<svg xmlns="http://www.w3.org/2000/svg" width="68" height="68" viewBox="0 0 68 68">
  <g id="windmill-icon" transform="translate(0.506 0.494)">
    <path id="Path_90069" data-name="Path 90069" d="M24.981,27.087a7.451,7.451,0,0,1,1.264.442,5.118,5.118,0,0,1,2.084-3.184,7.649,7.649,0,0,1,1.83-1,6.319,6.319,0,0,1-.864-.638,5.13,5.13,0,0,1-.951-1.112c-.988-1.576-.7-3.037-.392-4.537.065-.311.123-.622.138-.714l2.5-14.3c.007-.027.007-.049.015-.071h0a2.608,2.608,0,0,1,1.6-1.707A3.576,3.576,0,0,1,33.659.008,3.412,3.412,0,0,1,35.1.363a2.567,2.567,0,0,1,1.431,1.892.312.312,0,0,1,.007.082l2.636,15.737h.007a6.4,6.4,0,0,1,.015,2.6,4.157,4.157,0,0,1-1.99,2.557c-.087.055-.174.109-.261.158a7.659,7.659,0,0,1,1.721.96,5.043,5.043,0,0,1,2.128,3.517,7.684,7.684,0,0,1,1.757-.442,9.512,9.512,0,0,1,1.765-.065,11.27,11.27,0,0,1,5.425,2.007c.261.158.523.316.755.447l15.258,8.763a.629.629,0,0,1,.073.049h0a2.251,2.251,0,0,1,1.169,1.9,1.748,1.748,0,0,1-.428,1.074,2.673,2.673,0,0,1-1.133.758,4.48,4.48,0,0,1-2.883-.016v.005L42.97,36.166a12.538,12.538,0,0,1-3.014-1.292,4.234,4.234,0,0,1-1.9-2.356c-.16.1-.334.191-.508.278l5.171,26.457H52.8a2.377,2.377,0,0,1,1.4.436l.007.005h0a1.346,1.346,0,0,1,.581,1.052v4.771a1.346,1.346,0,0,1-.581,1.052h0a2.371,2.371,0,0,1-1.394.436H14.189a2.377,2.377,0,0,1-1.4-.436h0a1.344,1.344,0,0,1-.581-1.047V60.752a1.346,1.346,0,0,1,.581-1.052l.007-.005h0a2.377,2.377,0,0,1,1.4-.436H24.255l4.466-26.37a.76.76,0,0,1,.145-.409c-.109-.065-.211-.136-.312-.207-.022.06-.051.12-.073.18a4.815,4.815,0,0,1-.777,1.183c-1.285,1.45-3.108,2.018-4.967,2.6-.327.1-.661.207-.886.284L4.247,42.3c-.029.011-.058.016-.087.027h0a4.259,4.259,0,0,1-2.781-.147,2.532,2.532,0,0,1-1.046-.8A1.657,1.657,0,0,1,0,40.272a2.513,2.513,0,0,1,1.416-1.9l.08-.044L18.082,28.5a12.232,12.232,0,0,1,2.963-1.358,7.368,7.368,0,0,1,3.936-.055ZM35.112,33.9H31.2L26.876,59.247H40.094L35.112,33.9ZM14.814,61.21v3.839H52.178V61.21Zm22-35.481a5.883,5.883,0,0,0-6.652,0,2.958,2.958,0,0,0,0,4.995,5.883,5.883,0,0,0,6.652,0,2.958,2.958,0,0,0,0-4.995Zm-2.092-3.6a3.836,3.836,0,0,0,.806-.393,2.3,2.3,0,0,0,1.1-1.423,4.952,4.952,0,0,0-.044-2.007h.007L33.957,2.577c-.007-.027-.015-.06-.022-.087a.625.625,0,0,0-.29-.507.208.208,0,0,0-.094-.027.259.259,0,0,0-.109.022.528.528,0,0,0-.29.371L30.66,16.6c-.073.4-.1.573-.138.752-.24,1.2-.479,2.377.167,3.408a3.377,3.377,0,0,0,.581.692,3.486,3.486,0,0,0,1.619.807,3.431,3.431,0,0,0,1.837-.131ZM40.5,31.247a2.008,2.008,0,0,0,.051.714,2.326,2.326,0,0,0,1.1,1.429,9.836,9.836,0,0,0,2.331.971l19.579,6.167v.005h0a1.237,1.237,0,0,0,.741.065.152.152,0,0,0,.073-.049.1.1,0,0,0,.029-.076c0-.1-.087-.234-.283-.376L48.91,31.367c-.29-.169-.545-.322-.8-.469a8.857,8.857,0,0,0-4.023-1.587A5.921,5.921,0,0,0,43,29.344a3.753,3.753,0,0,0-1.743.649,1.788,1.788,0,0,0-.755,1.254Zm-15.491-2a3.987,3.987,0,0,0-.864-.311,4.129,4.129,0,0,0-2.193.027,9.916,9.916,0,0,0-2.259,1.058L3.114,39.863c-.029.016-.051.033-.08.049-.29.174-.421.327-.428.447a.11.11,0,0,0,.022.071.222.222,0,0,0,.073.06.915.915,0,0,0,.574-.005L20.8,34.715c.378-.125.654-.213.93-.294a8.352,8.352,0,0,0,3.8-1.87,2.97,2.97,0,0,0,.487-.736,1.876,1.876,0,0,0,.087-1.461,2.187,2.187,0,0,0-1.1-1.1Z" transform="translate(0 0)" fill="#004290" stroke="#004290" stroke-width="1"/>
  </g>
</svg>
