<svg id="Group_9207" data-name="Group 9207" xmlns="http://www.w3.org/2000/svg" xmlns:xlink="http://www.w3.org/1999/xlink" width="423.888" height="423.407" viewBox="0 0 423.888 423.407">
  <defs>
    <clipPath id="clip-path">
      <rect id="Rectangle_142686" data-name="Rectangle 142686" width="423.887" height="423.407" fill="rgba(0,0,0,0)"/>
    </clipPath>
  </defs>
  <g id="Group_9206" data-name="Group 9206" clip-path="url(#clip-path)">
    <path id="Path_89878" data-name="Path 89878" d="M616.022,80.974l1.506,5.329,6.04-.325a22.957,22.957,0,0,0,1.969,3.318l-3.156,5.151,3.969,3.862,5.07-3.3a23.268,23.268,0,0,0,3.363,1.881l-.159,6.048,5.368,1.36,2.735-5.386a22.976,22.976,0,0,0,3.858-.06l2.886,5.316,5.329-1.507-.324-6.04A22.972,22.972,0,0,0,657.8,94.65l5.151,3.157,3.862-3.969-3.3-5.07a23.223,23.223,0,0,0,1.881-3.363l6.048.158,1.36-5.368-5.386-2.735a22.955,22.955,0,0,0-.06-3.858l5.316-2.886-1.506-5.329-6.04.324a22.911,22.911,0,0,0-1.969-3.318l3.157-5.151-3.969-3.862-5.07,3.3A23.222,23.222,0,0,0,653.9,54.8l.159-6.048-5.368-1.36-2.736,5.386a22.948,22.948,0,0,0-3.858.059l-2.886-5.315-5.329,1.506.325,6.04a22.9,22.9,0,0,0-3.318,1.969l-5.151-3.157-3.862,3.969,3.3,5.07a23.224,23.224,0,0,0-1.881,3.363l-6.048-.158-1.36,5.368,5.386,2.736a22.952,22.952,0,0,0,.06,3.858Zm24.443-18.848a14.256,14.256,0,1,1-9.84,17.6,14.256,14.256,0,0,1,9.84-17.6" transform="translate(-473.393 -36.428)" fill="none"/>
    <path id="Path_89879" data-name="Path 89879" d="M638.281,103.1a.519.519,0,0,1-.126-.016l-5.369-1.36a.515.515,0,0,1-.389-.513l.15-5.71a23.855,23.855,0,0,1-2.842-1.589l-4.786,3.117a.515.515,0,0,1-.64-.062L620.309,93.1a.515.515,0,0,1-.08-.639l2.979-4.862a23.6,23.6,0,0,1-1.664-2.8l-5.7.306a.519.519,0,0,1-.523-.374L613.814,79.4a.516.516,0,0,1,.25-.593l5.018-2.724a23.526,23.526,0,0,1-.051-3.261l-5.084-2.582a.515.515,0,0,1-.266-.586l1.36-5.368a.53.53,0,0,1,.513-.389l5.709.15a23.892,23.892,0,0,1,1.589-2.842l-3.117-4.786a.515.515,0,0,1,.063-.64l3.862-3.969a.515.515,0,0,1,.639-.08l4.862,2.98a23.544,23.544,0,0,1,2.805-1.664l-.307-5.7a.515.515,0,0,1,.374-.524l5.329-1.507a.516.516,0,0,1,.593.25l2.724,5.017a23.56,23.56,0,0,1,3.261-.051l2.582-5.084a.515.515,0,0,1,.586-.266l5.368,1.36a.515.515,0,0,1,.388.513l-.149,5.709a23.824,23.824,0,0,1,2.842,1.589l4.786-3.117a.515.515,0,0,1,.641.062l3.969,3.862a.516.516,0,0,1,.08.639l-2.979,4.862a23.558,23.558,0,0,1,1.664,2.8l5.7-.306a.519.519,0,0,1,.524.374l1.506,5.329a.515.515,0,0,1-.25.593l-5.017,2.724a23.587,23.587,0,0,1,.051,3.261l5.084,2.582a.515.515,0,0,1,.266.586l-1.36,5.368a.528.528,0,0,1-.513.389L664,84.217a23.936,23.936,0,0,1-1.59,2.842l3.117,4.786a.515.515,0,0,1-.062.64L661.6,96.454a.515.515,0,0,1-.639.08l-4.862-2.98a23.591,23.591,0,0,1-2.805,1.664l.306,5.7a.516.516,0,0,1-.375.524L647.9,102.95a.515.515,0,0,1-.593-.25l-2.724-5.017a23.548,23.548,0,0,1-3.261.051l-2.582,5.084a.515.515,0,0,1-.459.282m-4.843-2.274,4.57,1.158,2.549-5.019a.517.517,0,0,1,.5-.281,22.491,22.491,0,0,0,3.771-.058.517.517,0,0,1,.5.267l2.689,4.954,4.536-1.282-.3-5.629a.516.516,0,0,1,.289-.491,22.507,22.507,0,0,0,3.244-1.925.516.516,0,0,1,.569-.02l4.8,2.941,3.287-3.379-3.076-4.725a.515.515,0,0,1,0-.569,22.857,22.857,0,0,0,1.839-3.289.519.519,0,0,1,.482-.3l5.636.148,1.158-4.57-5.019-2.549a.515.515,0,0,1-.281-.5,22.516,22.516,0,0,0-.058-3.771.515.515,0,0,1,.267-.5l4.954-2.689-1.282-4.536-5.628.3a.515.515,0,0,1-.491-.289,22.453,22.453,0,0,0-1.925-3.244.516.516,0,0,1-.02-.569l2.942-4.8-3.379-3.287L655.836,55.4a.515.515,0,0,1-.569,0,22.763,22.763,0,0,0-3.289-1.839.515.515,0,0,1-.3-.483l.147-5.636-4.569-1.157L644.705,51.3a.516.516,0,0,1-.5.281,22.5,22.5,0,0,0-3.771.058.516.516,0,0,1-.5-.267l-2.69-4.954L632.71,47.7l.3,5.628a.516.516,0,0,1-.289.491,22.474,22.474,0,0,0-3.244,1.925.515.515,0,0,1-.569.02l-4.8-2.942L620.823,56.2l3.077,4.724a.516.516,0,0,1,0,.569,22.825,22.825,0,0,0-1.839,3.289.515.515,0,0,1-.482.3l-5.636-.148-1.158,4.57,5.019,2.549a.516.516,0,0,1,.281.5,22.5,22.5,0,0,0,.058,3.771.515.515,0,0,1-.267.5l-4.954,2.689,1.282,4.536,5.629-.3a.515.515,0,0,1,.491.289,22.48,22.48,0,0,0,1.925,3.244.516.516,0,0,1,.02.569l-2.941,4.8,3.379,3.287,4.724-3.077a.515.515,0,0,1,.569,0,22.79,22.79,0,0,0,3.289,1.839.515.515,0,0,1,.3.483Zm9.171-11.915a14.816,14.816,0,1,1,4.04-.564,14.837,14.837,0,0,1-4.04.564m-3.716-28a13.741,13.741,0,1,0,10.445,1.229,13.65,13.65,0,0,0-10.445-1.229m-.14-.5h0Z" transform="translate(-471.681 -34.716)" fill="#fff"/>
    <path id="Path_89880" data-name="Path 89880" d="M234.954,243.916l2.578,9.119,10.335-.555a39.257,39.257,0,0,0,3.37,5.678l-5.4,8.814,6.792,6.608,8.675-5.65a39.762,39.762,0,0,0,5.756,3.218l-.272,10.349,9.186,2.327,4.681-9.217a39.272,39.272,0,0,0,6.6-.1l4.938,9.1,9.119-2.578-.555-10.335a39.271,39.271,0,0,0,5.678-3.37l8.814,5.4,6.608-6.792-5.649-8.675a39.789,39.789,0,0,0,3.218-5.755l10.349.271,2.327-9.186-9.217-4.681a39.269,39.269,0,0,0-.1-6.6l9.1-4.938-2.578-9.119-10.335.555a39.263,39.263,0,0,0-3.37-5.678l5.4-8.814-6.792-6.608-8.675,5.65a39.776,39.776,0,0,0-5.755-3.219l.271-10.349-9.186-2.327-4.681,9.217a39.265,39.265,0,0,0-6.6.1l-4.939-9.1-9.119,2.578.556,10.335a39.252,39.252,0,0,0-5.678,3.37l-8.814-5.4-6.608,6.792,5.65,8.675a39.79,39.79,0,0,0-3.219,5.756l-10.349-.271-2.327,9.186,9.217,4.681a39.25,39.25,0,0,0,.1,6.6Zm41.826-32.252a24.4,24.4,0,1,1-16.838,30.111,24.395,24.395,0,0,1,16.838-30.111" transform="translate(-180.421 -143.313)" fill="none"/>
    <path id="Path_89881" data-name="Path 89881" d="M274.261,282.627a.517.517,0,0,1-.127-.016l-9.186-2.327a.515.515,0,0,1-.388-.513l.262-10.01a40.482,40.482,0,0,1-5.235-2.927L251.2,272.3a.515.515,0,0,1-.64-.062l-6.792-6.608a.515.515,0,0,1-.08-.639l5.224-8.524a39.9,39.9,0,0,1-3.065-5.166l-10,.537a.516.516,0,0,1-.524-.374l-2.578-9.119a.515.515,0,0,1,.25-.593l8.8-4.776a39.948,39.948,0,0,1-.093-6.005l-8.914-4.527a.515.515,0,0,1-.266-.586l2.327-9.186a.505.505,0,0,1,.513-.389l10.009.262a40.456,40.456,0,0,1,2.927-5.235l-5.464-8.39a.515.515,0,0,1,.062-.641l6.608-6.792a.515.515,0,0,1,.639-.08l8.524,5.224a39.96,39.96,0,0,1,5.165-3.065l-.537-10a.515.515,0,0,1,.374-.523l9.119-2.578a.515.515,0,0,1,.593.25l4.776,8.8a39.984,39.984,0,0,1,6.006-.093l4.527-8.914a.515.515,0,0,1,.586-.266l9.186,2.327a.515.515,0,0,1,.388.513l-.262,10.009a40.446,40.446,0,0,1,5.235,2.928l8.39-5.464a.515.515,0,0,1,.64.063l6.792,6.608a.515.515,0,0,1,.08.639l-5.224,8.524a39.886,39.886,0,0,1,3.065,5.166l10-.537a.518.518,0,0,1,.523.374l2.578,9.119a.516.516,0,0,1-.25.593l-8.8,4.776a39.987,39.987,0,0,1,.093,6.006l8.914,4.527a.515.515,0,0,1,.266.586l-2.327,9.186a.517.517,0,0,1-.513.389l-10.009-.263a40.43,40.43,0,0,1-2.927,5.235l5.464,8.391a.515.515,0,0,1-.062.64l-6.608,6.792a.515.515,0,0,1-.638.08l-8.524-5.224a39.949,39.949,0,0,1-5.165,3.065l.537,10a.515.515,0,0,1-.374.524l-9.119,2.578a.516.516,0,0,1-.593-.25l-4.776-8.8a39.96,39.96,0,0,1-6.006.093l-4.527,8.914a.515.515,0,0,1-.459.282m-8.66-3.241,8.388,2.125,4.495-8.85a.517.517,0,0,1,.5-.281,38.921,38.921,0,0,0,6.515-.1.516.516,0,0,1,.5.267l4.742,8.734,8.326-2.354L298.531,269a.516.516,0,0,1,.289-.491,38.871,38.871,0,0,0,5.6-3.325.514.514,0,0,1,.569-.02l8.463,5.186,6.033-6.2-5.425-8.33a.515.515,0,0,1,0-.569,39.394,39.394,0,0,0,3.177-5.681.517.517,0,0,1,.483-.3l9.937.261,2.125-8.387-8.849-4.495a.515.515,0,0,1-.281-.5,38.9,38.9,0,0,0-.1-6.515.515.515,0,0,1,.267-.5l8.734-4.741-2.354-8.326-9.924.533a.516.516,0,0,1-.491-.289,38.843,38.843,0,0,0-3.325-5.6.516.516,0,0,1-.02-.569l5.186-8.463-6.2-6.034-8.33,5.425a.515.515,0,0,1-.569,0,39.35,39.35,0,0,0-5.681-3.177.515.515,0,0,1-.3-.483l.26-9.937-8.388-2.125-4.495,8.85a.513.513,0,0,1-.5.281,38.875,38.875,0,0,0-6.515.1.518.518,0,0,1-.5-.267l-4.742-8.734-8.326,2.354.533,9.924a.516.516,0,0,1-.289.491,38.864,38.864,0,0,0-5.6,3.325.516.516,0,0,1-.569.02l-8.463-5.186-6.033,6.2,5.425,8.33a.515.515,0,0,1,0,.569,39.425,39.425,0,0,0-3.177,5.681.509.509,0,0,1-.482.3l-9.937-.261-2.125,8.388,8.85,4.495a.515.515,0,0,1,.281.5,38.855,38.855,0,0,0,.1,6.515.515.515,0,0,1-.267.5l-8.734,4.742,2.354,8.326,9.924-.533a.509.509,0,0,1,.491.289,38.837,38.837,0,0,0,3.325,5.6.516.516,0,0,1,.02.569l-5.186,8.463,6.2,6.034,8.33-5.425a.515.515,0,0,1,.569,0,39.387,39.387,0,0,0,5.681,3.177.515.515,0,0,1,.3.483Zm16.113-21.048a24.912,24.912,0,0,1-6.786-48.884l.14.5-.14-.5a24.91,24.91,0,1,1,6.786,48.884m.027-48.8a23.884,23.884,0,1,0,6.461,46.869,23.888,23.888,0,0,0-6.461-46.869" transform="translate(-178.709 -141.601)" fill="#fff"/>
    <path id="Path_89882" data-name="Path 89882" d="M1349.528,2.227h-106.6a7.531,7.531,0,0,0-7.531,7.531V127.369a7.531,7.531,0,0,0,7.531,7.531h106.6a7.531,7.531,0,0,0,7.531-7.531V9.758a7.531,7.531,0,0,0-7.531-7.531" transform="translate(-949.566 -1.712)" fill="none"/>
    <path id="Path_89883" data-name="Path 89883" d="M1347.816,133.7h-106.6a8.056,8.056,0,0,1-8.047-8.047V8.047A8.056,8.056,0,0,1,1241.219,0h106.6a8.055,8.055,0,0,1,8.046,8.047V125.657a8.055,8.055,0,0,1-8.046,8.047M1241.219,1.031a7.024,7.024,0,0,0-7.016,7.016V125.657a7.024,7.024,0,0,0,7.016,7.016h106.6a7.024,7.024,0,0,0,7.016-7.016V8.047a7.024,7.024,0,0,0-7.016-7.016Z" transform="translate(-947.853)"/>
    <path id="Path_89884" data-name="Path 89884" d="M1369.344,54.448H1259.561a.515.515,0,0,1,0-1.031h109.783a.515.515,0,0,1,0,1.031" transform="translate(-967.741 -41.058)"/>
    <path id="Path_89885" data-name="Path 89885" d="M1265.135,20.851a1.931,1.931,0,1,1-1.931-1.931,1.931,1.931,0,0,1,1.931,1.931" transform="translate(-969.452 -14.542)"/>
    <path id="Path_89886" data-name="Path 89886" d="M1298.521,20.851a1.931,1.931,0,1,1-1.931-1.931,1.931,1.931,0,0,1,1.931,1.931" transform="translate(-995.114 -14.542)"/>
    <path id="Path_89887" data-name="Path 89887" d="M1331.906,20.851a1.931,1.931,0,1,1-1.931-1.931,1.931,1.931,0,0,1,1.931,1.931" transform="translate(-1020.775 -14.542)"/>
    <path id="Path_89888" data-name="Path 89888" d="M1697.914,26.07h-10.879a.515.515,0,0,1,0-1.031h10.879a.515.515,0,0,1,0,1.031" transform="translate(-1296.31 -19.246)"/>
    <path id="Path_89889" data-name="Path 89889" d="M1516.2,26.07h-45.059a.515.515,0,1,1,0-1.031H1516.2a.515.515,0,0,1,0,1.031" transform="translate(-1130.368 -19.246)"/>
    <path id="Path_89890" data-name="Path 89890" d="M1388.089,26.07H1378.5a.515.515,0,0,1,0-1.031h9.591a.515.515,0,0,1,0,1.031" transform="translate(-1059.159 -19.246)"/>
    <path id="Path_89891" data-name="Path 89891" d="M1313.415,137.059a23,23,0,0,1,17.631-11.264l.527-30.021c-21.8.073-41.039,12.355-49.8,30.508Z" transform="translate(-985.209 -73.616)" fill="#3ea742"/>
    <path id="Path_89892" data-name="Path 89892" d="M1311.7,135.862a.511.511,0,0,1-.166-.028l-31.642-10.776a.516.516,0,0,1-.3-.712c9-18.638,28.725-30.728,50.263-30.8a.515.515,0,0,1,.517.524l-.527,30.021a.516.516,0,0,1-.462.5,22.448,22.448,0,0,0-17.236,11.007.516.516,0,0,1-.448.26m-30.922-11.59,30.689,10.452a23.488,23.488,0,0,1,17.356-11.1l.51-29.04c-20.738.261-39.69,11.853-48.555,29.69" transform="translate(-983.498 -71.903)"/>
    <path id="Path_89893" data-name="Path 89893" d="M1410.383,117.7a.515.515,0,0,1-.193-.993,53.286,53.286,0,0,1,15.412-3.694.515.515,0,1,1,.089,1.027,52.271,52.271,0,0,0-15.114,3.623.513.513,0,0,1-.193.038" transform="translate(-1083.667 -86.861)"/>
    <path id="Path_89894" data-name="Path 89894" d="M1335.323,148.637a.515.515,0,0,1-.368-.876,51.185,51.185,0,0,1,12.81-9.5.515.515,0,1,1,.479.913,50.151,50.151,0,0,0-12.552,9.31.513.513,0,0,1-.368.155" transform="translate(-1025.974 -106.226)"/>
    <path id="Path_89895" data-name="Path 89895" d="M1440.073,331.713c-1.787,9.864-10.773,17.619-21.781,17.961a23.461,23.461,0,0,1-9.265-1.574l-17.183,26.6a56.3,56.3,0,0,0,26.448,4.83c27.447-1.577,49.026-22.238,51.423-47.112Z" transform="translate(-1069.813 -254.965)" fill="#004290"/>
    <path id="Path_89896" data-name="Path 89896" d="M1413.286,378.433a56.93,56.93,0,0,1-23.366-4.97.515.515,0,0,1-.22-.749l17.183-26.6a.514.514,0,0,1,.62-.2,22.852,22.852,0,0,0,9.061,1.539c10.555-.328,19.509-7.7,21.29-17.538a.526.526,0,0,1,.519-.423l29.641.71a.515.515,0,0,1,.5.565c-2.463,25.565-24.777,46.018-51.906,47.577q-1.661.1-3.323.1m-22.394-5.666a56.165,56.165,0,0,0,25.659,4.541c26.43-1.518,48.2-21.289,50.882-46.1l-28.648-.686c-2.049,10.091-11.307,17.612-22.188,17.951a23.9,23.9,0,0,1-9.074-1.459Z" transform="translate(-1068.102 -253.253)"/>
    <path id="Path_89897" data-name="Path 89897" d="M1434.713,510.053a52.409,52.409,0,0,1-16.8-2.725.515.515,0,0,1,.33-.976,51.386,51.386,0,0,0,16.469,2.671c1.02,0,2.054-.03,3.071-.088a.515.515,0,0,1,.06,1.029c-1.037.06-2.091.09-3.131.09" transform="translate(-1089.582 -389.176)"/>
    <path id="Path_89898" data-name="Path 89898" d="M1550.275,388.54a.515.515,0,0,1-.135-1.012c18.03-4.917,31.954-19.229,35.474-36.464a.515.515,0,0,1,1.01.206c-3.6,17.612-17.811,32.234-36.213,37.252a.52.52,0,0,1-.136.018" transform="translate(-1191.192 -269.521)"/>
    <path id="Path_89899" data-name="Path 89899" d="M1285.534,310.432l17.341-26.683a20.591,20.591,0,0,1-8.521-16.6,20.372,20.372,0,0,1,.567-4.772l-31.763-10.647a48.938,48.938,0,0,0-2.627,15.834c0,18.253,10.015,33.968,25,42.864" transform="translate(-968.882 -193.49)" fill="#007bff"/>
    <path id="Path_89900" data-name="Path 89900" d="M1283.822,309.235a.511.511,0,0,1-.262-.072c-15.815-9.386-25.256-25.575-25.256-43.307a49.454,49.454,0,0,1,2.655-16,.515.515,0,0,1,.651-.322l31.763,10.647a.515.515,0,0,1,.337.609,19.9,19.9,0,0,0,7.76,20.833.515.515,0,0,1,.125.7L1284.255,309a.515.515,0,0,1-.433.235m-22.051-58.561a48.425,48.425,0,0,0-2.437,15.182c0,17.205,9.084,32.932,24.327,42.166l16.809-25.865a20.914,20.914,0,0,1-7.867-21.149Z" transform="translate(-967.17 -191.778)"/>
    <path id="Path_89901" data-name="Path 89901" d="M1537.3,55.51c10.025,1.492,17.733,9.26,18.649,18.861l48.471,1.4c0-.021,0-.041,0-.062,0-35.558-28.332-65.988-66.251-69.905Z" transform="translate(-1181.613 -4.465)" fill="none"/>
    <path id="Path_89902" data-name="Path 89902" d="M1602.7,74.579h-.01l-48.471-1.4a.515.515,0,0,1-.5-.466c-.894-9.371-8.382-16.938-18.211-18.4a.516.516,0,0,1-.44-.519l.869-49.7a.515.515,0,0,1,.568-.5,76.123,76.123,0,0,1,47.668,23.246A68.685,68.685,0,0,1,1603.22,74a.589.589,0,0,1-.156.4.555.555,0,0,1-.365.176m-48-2.422,47.49,1.376c-.246-35.3-28.164-64.772-65.229-68.864l-.851,48.69c9.921,1.667,17.474,9.306,18.59,18.8" transform="translate(-1179.901 -2.753)" fill="#004290"/>
    <path id="Path_89903" data-name="Path 89903" d="M1072.859,252.613h-63.44a5.661,5.661,0,0,0-5.661,5.66v84.293a5.661,5.661,0,0,0,5.661,5.66h63.44a5.66,5.66,0,0,0,5.66-5.66V258.273a5.66,5.66,0,0,0-5.66-5.66" transform="translate(-771.519 -194.166)" fill="none"/>
    <path id="Path_89904" data-name="Path 89904" d="M1071.148,347.03h-63.44a6.183,6.183,0,0,1-6.176-6.176V256.562a6.183,6.183,0,0,1,6.176-6.176h63.44a6.183,6.183,0,0,1,6.176,6.176v84.293a6.183,6.183,0,0,1-6.176,6.176m-63.44-95.614a5.151,5.151,0,0,0-5.145,5.145v84.293a5.151,5.151,0,0,0,5.145,5.145h63.44a5.151,5.151,0,0,0,5.145-5.145V256.562a5.151,5.151,0,0,0-5.145-5.145Z" transform="translate(-769.808 -192.454)"/>
    <rect id="Rectangle_142683" data-name="Rectangle 142683" width="16.285" height="53.517" transform="translate(241.127 85.772)" fill="#fff"/>
    <path id="Path_89905" data-name="Path 89905" d="M1056.746,423.033H1040.46a.516.516,0,0,1-.515-.515V369a.515.515,0,0,1,.515-.515h16.285a.515.515,0,0,1,.515.515v53.517a.515.515,0,0,1-.515.515M1040.976,422h15.255V369.515h-15.255Z" transform="translate(-799.333 -283.229)"/>
    <rect id="Rectangle_142684" data-name="Rectangle 142684" width="16.285" height="68.286" transform="translate(261.477 71.003)" fill="#fff"/>
    <path id="Path_89906" data-name="Path 89906" d="M1144.7,373.971h-16.285a.516.516,0,0,1-.515-.515V305.169a.515.515,0,0,1,.515-.515H1144.7a.515.515,0,0,1,.515.515v68.286a.515.515,0,0,1-.515.515m-15.77-1.031h15.255V305.685h-15.255Z" transform="translate(-866.939 -234.166)"/>
    <rect id="Rectangle_142685" data-name="Rectangle 142685" width="16.285" height="31.906" transform="translate(281.828 107.383)" fill="#fff"/>
    <path id="Path_89907" data-name="Path 89907" d="M1232.657,494.828h-16.285a.516.516,0,0,1-.516-.515V462.407a.515.515,0,0,1,.516-.515h16.285a.515.515,0,0,1,.515.515v31.906a.515.515,0,0,1-.515.515m-15.77-1.031h15.255V462.922h-15.255Z" transform="translate(-934.544 -355.024)"/>
    <path id="Path_89908" data-name="Path 89908" d="M755.441,1491.749l1.423,13.557,9.167,1.075v-16.075Z" transform="translate(-580.655 -1145.494)" fill="#fff"/>
    <path id="Path_89909" data-name="Path 89909" d="M764.319,1505.183a.519.519,0,0,1-.06,0l-9.167-1.074a.515.515,0,0,1-.453-.458l-1.423-13.557a.515.515,0,0,1,.443-.564l10.59-1.443a.515.515,0,0,1,.585.51v16.075a.515.515,0,0,1-.515.515m-8.7-2.054,8.182.959v-14.906l-9.51,1.3Z" transform="translate(-578.943 -1143.781)"/>
    <path id="Path_89910" data-name="Path 89910" d="M737.737,1559.088a64.032,64.032,0,0,1-17.439-.007,4.1,4.1,0,0,1-3.426-5.034c1.619-6.582,4.409-19.066,9.2-24.852l1.189,3.138,1.643-2.955a1.455,1.455,0,0,1,1.089-.736l3.6-.456a1.455,1.455,0,0,1,1.607,1.144l.573,2.723,1.255-3.574,4.186,26.022a4.088,4.088,0,0,1-3.473,4.588" transform="translate(-550.917 -1174.6)" fill="#fff"/>
    <path id="Path_89911" data-name="Path 89911" d="M727.365,1558.487a64.563,64.563,0,0,1-8.843-.605,4.613,4.613,0,0,1-3.856-5.668l.347-1.421c1.652-6.789,4.416-18.153,8.954-23.637a.515.515,0,0,1,.879.146l.8,2.1,1.1-1.986a1.976,1.976,0,0,1,1.474-1l3.6-.456a1.985,1.985,0,0,1,2.176,1.549l.193.918.644-1.834a.515.515,0,0,1,.995.089l4.186,26.022a4.618,4.618,0,0,1-3.91,5.18l-.072-.51.072.51a63.109,63.109,0,0,1-8.739.6m-3.157-29.962c-4.065,5.54-6.632,16.1-8.194,22.511l-.347,1.423a3.53,3.53,0,0,0,.512,2.859,3.6,3.6,0,0,0,2.484,1.542,63.388,63.388,0,0,0,17.3.007,3.582,3.582,0,0,0,3.034-4.011l-3.862-24-.583,1.659a.515.515,0,0,1-.99-.065l-.573-2.722a.943.943,0,0,0-1.038-.739l-3.6.456a.943.943,0,0,0-.7.475L726,1530.873a.515.515,0,0,1-.932-.068Z" transform="translate(-549.212 -1172.89)"/>
    <path id="Path_89912" data-name="Path 89912" d="M734.57,1639.579a34.942,34.942,0,0,1-7.723-.817.515.515,0,0,1,.229-1.005c8.982,2.047,18.391-.585,18.484-.612a.515.515,0,0,1,.283.991,44.948,44.948,0,0,1-11.273,1.443" transform="translate(-558.368 -1258.344)"/>
    <path id="Path_89913" data-name="Path 89913" d="M750.385,1599.792a.515.515,0,0,1-.017-1.03l8.592-.284a.521.521,0,0,1,.532.5.515.515,0,0,1-.5.532l-8.592.284h-.017" transform="translate(-576.372 -1228.639)"/>
    <path id="Path_89914" data-name="Path 89914" d="M941.013,1465.344l1.374,19.784h11.03l.513-19.784Z" transform="translate(-723.291 -1126.308)" fill="#fff"/>
    <path id="Path_89915" data-name="Path 89915" d="M951.706,1483.932h-11.03a.515.515,0,0,1-.514-.48l-1.374-19.784a.516.516,0,0,1,.514-.551h12.917a.515.515,0,0,1,.515.529l-.513,19.784a.515.515,0,0,1-.515.5m-10.55-1.031H951.2l.486-18.754H939.854Z" transform="translate(-721.58 -1124.596)"/>
    <path id="Path_89916" data-name="Path 89916" d="M934.495,1532.571a3.983,3.983,0,0,0,3.074,3.939c6.341,1.476,20.626,4.761,24.7,5.368,5.288.787,11.788-.833,14.582-3.926s-6.257-10.479-10.553-13.166c-6.381-3.992-12.512-11.882-15.083-12.237s-7.369,7.1-7.369,7.1L936,1516.357a97.12,97.12,0,0,0-1.508,16.214" transform="translate(-718.28 -1162.582)" fill="#fff"/>
    <path id="Path_89917" data-name="Path 89917" d="M963.325,1540.883a19.34,19.34,0,0,1-2.843-.2c-4.117-.613-18.674-3.964-24.742-5.376a4.521,4.521,0,0,1-3.473-4.448,98.73,98.73,0,0,1,1.518-16.309.515.515,0,0,1,.7-.372l7.448,3.128c1.215-1.835,5.084-7.325,7.636-6.972,1.453.2,3.535,2.176,6.417,4.911a60.3,60.3,0,0,0,8.869,7.4c3.449,2.158,10.747,7.867,11.288,11.74a2.61,2.61,0,0,1-.626,2.209c-2.358,2.611-7.351,4.294-12.2,4.294m-28.644-25.512a101.513,101.513,0,0,0-1.383,15.5,3.485,3.485,0,0,0,2.676,3.43c6.056,1.409,20.58,4.753,24.66,5.36,5.3.79,11.505-.863,14.124-3.762a1.6,1.6,0,0,0,.37-1.375c-.458-3.286-7.269-8.792-10.813-11.009a61.049,61.049,0,0,1-9.031-7.526c-2.429-2.3-4.724-4.482-5.849-4.637-1.63-.227-5.078,4.094-6.866,6.871a.515.515,0,0,1-.633.2Zm-1.9,15.491h0Z" transform="translate(-716.568 -1160.873)"/>
    <path id="Path_89918" data-name="Path 89918" d="M972.788,1601.609c-11.463,0-26.875-6.227-27.744-6.582a.515.515,0,0,1,.39-.954c.281.115,28.217,11.4,36.441,3.977a.515.515,0,0,1,.691.765c-2.252,2.034-5.775,2.794-9.777,2.794" transform="translate(-726.143 -1225.223)"/>
    <path id="Path_89919" data-name="Path 89919" d="M1011.47,1554.717a.515.515,0,0,1-.345-.9l5.61-5.061a.515.515,0,1,1,.69.765l-5.61,5.061a.512.512,0,0,1-.345.133" transform="translate(-777.05 -1190.32)"/>
    <path id="Path_89920" data-name="Path 89920" d="M723.515,897.832s-3.418,61.848-5.207,83.2,4.183,55.67,4.183,55.67l17.026-.895s1.167-41.728,2.432-53.316c0,0,7.192-15.709,9.323-29.719s9.392-36.14,9.392-36.14,5.9,110.454,6.465,119.132c0,0,13.351.595,18.138-2.417,0,0,8.481-40.275,7.264-62.188s.12-76.355.12-76.355Z" transform="translate(-551.856 -687.772)" fill="#004290"/>
    <path id="Path_89921" data-name="Path 89921" d="M789.043,1272.585h-5.2a.515.515,0,1,1,0-1.03h5.2a.515.515,0,1,1,0,1.03" transform="translate(-602.086 -977.356)" fill="#fff"/>
    <path id="Path_89922" data-name="Path 89922" d="M966.563,1315h-.01a.515.515,0,0,1-.506-.525c.187-10.207,11.393-28.511,11.869-29.285a.515.515,0,0,1,.878.541c-.115.187-11.535,18.838-11.717,28.764a.516.516,0,0,1-.515.506" transform="translate(-742.533 -987.65)" fill="#fff"/>
    <path id="Path_89923" data-name="Path 89923" d="M1040.313,381.983c1.24-.1,7.324,12.363,26.363,11.84S1100.99,372,1100.99,372s6.575-11.087,11.565-15.1,5.773-4.537,5.773-4.537a4.064,4.064,0,0,1,0,4.537,71.239,71.239,0,0,1-5.884,7.042,6.325,6.325,0,0,1,2.613,8.054c-2.468,6.259-9.424,5.756-9.424,5.756s-14.117,62.5-72.457,32.8Z" transform="translate(-794.131 -270.837)" fill="#fff"/>
    <path id="Path_89924" data-name="Path 89924" d="M1060.4,417.361c-8.86,0-18.612-2.69-29.165-8.063a.515.515,0,0,1-.266-.584l7.136-28.568a.515.515,0,0,1,.46-.389c.511-.04.913.409,1.887,1.5,2.884,3.217,9.638,10.755,24.5,10.344,18.569-.509,33.758-21.4,33.91-21.612.246-.419,6.656-11.177,11.661-15.2,4.95-3.976,5.775-4.541,5.807-4.563a.515.515,0,0,1,.7.118,4.55,4.55,0,0,1,.022,5.124,63.928,63.928,0,0,1-5.531,6.675,6.763,6.763,0,0,1,2.3,8.333c-2.209,5.6-7.879,6.071-9.5,6.088-.888,3.47-7.8,27.995-27.465,37.228a38.284,38.284,0,0,1-16.462,3.572m-28.332-8.8c17.116,8.627,32.036,10.072,44.35,4.294,20.625-9.678,26.942-36.661,27-36.933a.519.519,0,0,1,.539-.4c.269.019,6.612.392,8.908-5.43a5.779,5.779,0,0,0-2.382-7.414.516.516,0,0,1-.126-.8,71.227,71.227,0,0,0,5.824-6.966,3.55,3.55,0,0,0,.275-3.5c-.634.481-2.094,1.613-5.29,4.181-4.861,3.9-11.38,14.847-11.445,14.957-.179.252-15.669,21.556-34.744,22.079-.4.011-.8.017-1.187.017-14.516,0-21.208-7.465-24.11-10.7-.267-.3-.54-.6-.759-.827Z" transform="translate(-792.42 -269.125)"/>
    <path id="Path_89925" data-name="Path 89925" d="M656.179,428.712s5.713-36.878,25.9-45.951,47.494-7.812,55.024-3.28S764.261,404.5,764.261,404.5l-17.344,24.214s3.964,65.181.83,82.388c0,0-19.294,2.25-27.478-.973s-35.09-7.738-47.953-1.829l2.338-82.523Z" transform="translate(-504.359 -288.998)" fill="none"/>
    <path id="Path_89926" data-name="Path 89926" d="M732.418,510.556c-5.124,0-10.545-.4-14.05-1.782-8.057-3.173-34.695-7.747-47.549-1.84a.515.515,0,0,1-.73-.483l2.32-81.9-17.86,2.839a.516.516,0,0,1-.59-.588c.235-1.517,5.989-37.258,26.2-46.342,19.892-8.942,47.383-8.137,55.5-3.252,7.5,4.514,26.461,24.264,27.265,25.1a.516.516,0,0,1,.047.657L745.73,427.03c.229,3.845,3.839,65.707.811,82.329a.515.515,0,0,1-.447.419,131.547,131.547,0,0,1-13.676.777m-44.33-7.489c12.2,0,25.374,2.667,30.658,4.748,7.344,2.892,24.107,1.272,26.848.982,2.965-17.509-.864-81.24-.9-81.887a.513.513,0,0,1,.1-.331l17.095-23.866c-2.487-2.577-19.871-20.482-26.756-24.624-7.087-4.264-34.351-5.77-54.547,3.309-18.179,8.172-24.558,39.738-25.48,44.86l17.763-2.824a.515.515,0,0,1,.6.524l-2.315,81.712c4.564-1.885,10.625-2.6,16.946-2.6" transform="translate(-502.647 -287.165)"/>
    <path id="Path_89927" data-name="Path 89927" d="M800.842,782.8a.515.515,0,0,1-.089-1.023c30.679-5.422,39.636-26.665,39.723-26.879a.515.515,0,0,1,.955.387c-.089.219-9.231,21.98-40.5,27.506a.5.5,0,0,1-.09.008" transform="translate(-615.155 -579.99)"/>
    <path id="Path_89928" data-name="Path 89928" d="M911.548,569.5h-39.28l12.3-43.876h39.28Z" transform="translate(-670.452 -404.012)" fill="#004290"/>
    <path id="Path_89929" data-name="Path 89929" d="M670.38,574.948l19.879-8.886s-2.8,33.683,37.42,18.129a28.66,28.66,0,0,1-1.273-9.385c.21-5.056,3.234-.164,3.658,3.946s9.867,2.441,15.541.822,13.123-.559,0,6.68-16,4.01-16,4.01S712.848,613.714,692,608.732c-25.648-6.128-21.615-33.784-21.615-33.784" transform="translate(-515.097 -435.092)" fill="#fff"/>
    <path id="Path_89930" data-name="Path 89930" d="M696.081,608.222a25.464,25.464,0,0,1-5.938-.7c-13.491-3.223-18.758-12.41-20.8-19.549a38.818,38.818,0,0,1-1.2-14.81.516.516,0,0,1,.3-.4l19.88-8.886a.515.515,0,0,1,.724.513c-.01.123-.918,12.353,7.1,18.344,6.2,4.635,16.014,4.444,29.173-.565a29.246,29.246,0,0,1-1.151-9.1c.027-.646.108-2.611,1.3-2.648h.028c1.554,0,3.078,3.9,3.352,6.562a1.744,1.744,0,0,0,.814,1.323c2.357,1.595,9.053.489,14.073-.944,2.633-.751,7.094-1.251,7.86.607.655,1.589-1.788,3.885-7.47,7.019-10.753,5.931-14.841,5-16.14,4.274-2.159,2.819-15.255,18.955-31.9,18.955m-26.958-34.634a38.84,38.84,0,0,0,1.219,14.133c2.868,9.981,9.61,16.306,20.041,18.8a24.52,24.52,0,0,0,5.71.673c17.6,0,31.212-18.731,31.362-18.941a.515.515,0,0,1,.391-.215.506.506,0,0,1,.413.172c.018.017,2.965,2.721,15.365-4.118,7.423-4.094,7.078-5.569,7.014-5.724-.317-.77-3.343-.946-6.624-.009-2.661.759-11.6,3.061-14.933.806a2.753,2.753,0,0,1-1.262-2.07c-.308-2.987-1.821-5.55-2.326-5.637a3.51,3.51,0,0,0-.3,1.66,28.391,28.391,0,0,0,1.246,9.2.516.516,0,0,1-.3.647c-13.744,5.315-24.046,5.516-30.619.6-7.3-5.459-7.621-15.406-7.543-18.4Z" transform="translate(-513.364 -433.381)"/>
    <path id="Path_89931" data-name="Path 89931" d="M842.8,217.071c-1.717,1.572-5.074,3.492-7.7,2.169-1.956-.985-3.049-3.537-2.981-6.461a3.918,3.918,0,0,1-2.941-.738c-1.3-1.153-1.06-3.274-1.01-4.669.235-6.435-3.5-7.422-2.588-11.789a10.381,10.381,0,0,1,3.919-5.859c2.545-1.931,4.269-1.307,8.547-2.428,7.2-1.886,7.429-4.989,12.173-5,.274,0,6.73.07,8.921,4.53,1.782,3.627-.3,8.036-2.452,10.352-2.787,3-4.788,1.517-7.584,4.033-4.91,4.416-1.2,11.193-6.3,15.863" transform="translate(-634.454 -140.115)" fill="#004290"/>
    <path id="Path_89932" data-name="Path 89932" d="M875.1,241.92l-.284-.245c-1.425-1.228-2.908-2.654-3.286-4.5-1.608-7.833-8.783-10.676-9.114-3.484-.083,1.815-6.712,1.721-5.925,3.626,2.051,4.967,2.1,3.63-.8,5.461a2.5,2.5,0,0,0-.96.229c-1.484.692-2.01,2.706-1.173,4.5a3.841,3.841,0,0,0,2.356,2.11v7.847a7.242,7.242,0,0,1-4.5,6.7l-2.65,1.083s12.355,8.064,24.9-.79l-1.674-.751A8.444,8.444,0,0,1,867,256.276l-.014-1.534a6.56,6.56,0,0,0,2.414-.2c3.508-1.021,4.673-5.062,4.076-10.086l1.428-.767a1.078,1.078,0,0,0,.194-1.767" transform="translate(-652.387 -176.446)" fill="#fff"/>
    <path id="Path_89933" data-name="Path 89933" d="M859.269,267.393a25.234,25.234,0,0,1-12.5-3.417.515.515,0,0,1,.087-.908l2.65-1.083a6.7,6.7,0,0,0,4.182-6.227v-7.479a4.4,4.4,0,0,1-2.307-2.26c-.954-2.049-.316-4.375,1.423-5.185a2.984,2.984,0,0,1,1.015-.267c.48-.3.872-.507,1.191-.678.365-.2.71-.38.72-.473a6.972,6.972,0,0,0-.66-1.807c-.211-.486-.468-1.077-.766-1.8a1.2,1.2,0,0,1,.014-1c.4-.818,1.679-1.177,3.161-1.592,1.071-.3,2.689-.754,2.712-1.25.182-3.961,2.254-4.55,3.136-4.619,2.534-.2,5.928,2.812,7,8.023.35,1.706,1.793,3.067,3.118,4.209l.284.245a1.594,1.594,0,0,1-.287,2.611l-1.121.6c.576,5.551-1.048,9.293-4.483,10.292a6.8,6.8,0,0,1-2.038.251l.009.985a7.971,7.971,0,0,0,4.679,6.973l1.674.751a.515.515,0,0,1,.086.891,22.12,22.12,0,0,1-12.977,4.217m-11.038-3.773c2.949,1.545,12.723,5.7,22.665-.773l-.831-.373a9.013,9.013,0,0,1-5.288-7.893l-.014-1.546a.515.515,0,0,1,.561-.518,6.053,6.053,0,0,0,2.225-.183c2.973-.865,4.325-4.339,3.708-9.531a.515.515,0,0,1,.268-.515l1.428-.767a.564.564,0,0,0,.1-.923h0l-.283-.245c-1.454-1.253-3.04-2.759-3.455-4.783-.926-4.513-3.806-7.367-5.907-7.2-1.288.1-2.085,1.427-2.187,3.639-.057,1.241-1.711,1.7-3.463,2.2-.978.274-2.317.649-2.513,1.051-.011.022-.029.06.012.16.3.717.55,1.3.759,1.783.969,2.232,1.17,2.7-.52,3.6-.329.176-.739.395-1.238.711a.517.517,0,0,1-.254.079,1.989,1.989,0,0,0-.764.18c-1.224.571-1.639,2.282-.925,3.816a3.347,3.347,0,0,0,2.03,1.832.515.515,0,0,1,.374.5v7.847a7.729,7.729,0,0,1-4.822,7.181Z" transform="translate(-650.675 -174.735)"/>
    <path id="Path_89934" data-name="Path 89934" d="M902.392,322.109a.51.51,0,0,1-.079-.006,10.741,10.741,0,0,1-7.422-4.8.515.515,0,0,1,.893-.515,9.88,9.88,0,0,0,6.685,4.293.515.515,0,0,1-.077,1.025" transform="translate(-687.788 -243.298)"/>
    <path id="Path_89935" data-name="Path 89935" d="M187.248,601.728a4.89,4.89,0,1,1,1.828-.357,4.878,4.878,0,0,1-1.828.357m-.006-8.744a3.856,3.856,0,1,0,3.58,2.413,3.831,3.831,0,0,0-3.58-2.413" transform="translate(-140.169 -454.994)"/>
    <path id="Path_89936" data-name="Path 89936" d="M1758.114,669.24a.515.515,0,0,1-.372-.872l2.415-2.524a.515.515,0,0,1,.745.713l-2.415,2.524a.514.514,0,0,1-.372.159" transform="translate(-1350.943 -511.666)"/>
    <path id="Path_89937" data-name="Path 89937" d="M1721.583,707.422a.515.515,0,0,1-.372-.872l2.415-2.524a.515.515,0,1,1,.745.712l-2.415,2.524a.513.513,0,0,1-.372.159" transform="translate(-1322.864 -541.014)"/>
    <path id="Path_89938" data-name="Path 89938" d="M1723.679,670.184a.514.514,0,0,1-.362-.148l-2.451-2.416a.515.515,0,0,1,.724-.734l2.452,2.416a.515.515,0,0,1-.362.882" transform="translate(-1322.592 -512.475)"/>
    <path id="Path_89939" data-name="Path 89939" d="M1760.762,706.73a.512.512,0,0,1-.362-.148l-2.451-2.416a.515.515,0,1,1,.724-.734l2.451,2.416a.515.515,0,0,1-.362.882" transform="translate(-1351.095 -540.565)"/>
    <path id="Path_89940" data-name="Path 89940" d="M1001.864,32.4a.515.515,0,0,1-.372-.872L1003.907,29a.515.515,0,0,1,.745.712l-2.415,2.524a.514.514,0,0,1-.372.159" transform="translate(-769.667 -22.17)"/>
    <path id="Path_89941" data-name="Path 89941" d="M965.333,70.581a.515.515,0,0,1-.372-.872l2.415-2.524a.515.515,0,0,1,.745.712l-2.415,2.524a.514.514,0,0,1-.372.159" transform="translate(-741.588 -51.519)"/>
    <path id="Path_89942" data-name="Path 89942" d="M967.429,33.343a.514.514,0,0,1-.362-.148l-2.451-2.416a.515.515,0,1,1,.724-.734l2.451,2.416a.515.515,0,0,1-.362.882" transform="translate(-741.315 -22.979)"/>
    <path id="Path_89943" data-name="Path 89943" d="M1004.513,69.889a.514.514,0,0,1-.362-.148l-2.452-2.416a.515.515,0,1,1,.723-.734l2.452,2.416a.515.515,0,0,1-.361.882" transform="translate(-769.818 -51.07)"/>
    <path id="Path_89944" data-name="Path 89944" d="M637.936,1429.039l-7.825,80.123-5.584-.234L627.3,1424.7Z" transform="translate(-480.031 -1095.065)" fill="#fff"/>
    <path id="Path_89945" data-name="Path 89945" d="M628.4,1507.967h-.022l-5.584-.235a.515.515,0,0,1-.494-.532l2.774-84.231a.515.515,0,0,1,.71-.46l10.635,4.342a.515.515,0,0,1,.318.527l-7.825,80.123a.515.515,0,0,1-.512.465m-5.052-1.243,4.587.193,7.74-79.256-9.594-3.917Z" transform="translate(-478.318 -1093.354)"/>
    <path id="Path_89946" data-name="Path 89946" d="M228.843,1416.06l7.636,83.205,5.773-.434-2.774-87.27Z" transform="translate(-175.896 -1084.969)" fill="#fff"/>
    <path id="Path_89947" data-name="Path 89947" d="M234.766,1498.069a.515.515,0,0,1-.512-.468l-7.636-83.205a.515.515,0,0,1,.312-.521l10.634-4.5a.515.515,0,0,1,.716.458l2.774,87.27a.515.515,0,0,1-.476.53l-5.773.434-.039,0m-7.088-83.393L235.234,1497l4.775-.359-2.735-86.026Z" transform="translate(-174.184 -1083.257)"/>
    <path id="Path_89948" data-name="Path 89948" d="M113.958,1332.579l2.246,87.372,4.508-.977,4.134-90.549Z" transform="translate(-87.591 -1021.067)" fill="#fff"/>
    <path id="Path_89949" data-name="Path 89949" d="M114.493,1418.755a.516.516,0,0,1-.515-.5l-2.246-87.372a.514.514,0,0,1,.331-.495l10.888-4.155a.515.515,0,0,1,.7.505l-4.134,90.549a.515.515,0,0,1-.406.48l-4.508.977a.524.524,0,0,1-.109.012m-1.722-87.536,2.221,86.385,3.512-.761,4.08-89.368Z" transform="translate(-85.88 -1019.356)"/>
    <path id="Path_89950" data-name="Path 89950" d="M494.654,1324.135l2.246,87.372,4.684.026,3.958-91.551Z" transform="translate(-380.206 -1014.578)" fill="#fff"/>
    <path id="Path_89951" data-name="Path 89951" d="M136.483,965.693v20.33c0,19.882,15.681,36,35.025,36s35.025,16.118,35.025,36a3.2,3.2,0,0,1-3.2,3.208H110.618c-29,0-52.507-24.163-52.507-53.969V963.884c0-11.855,9.35-21.465,20.884-21.465h34.845c12.506,0,22.643,10.42,22.643,23.274" transform="translate(-44.666 -724.372)" fill="#fff"/>
    <path id="Path_89952" data-name="Path 89952" d="M201.619,1060.035H108.906c-29.237,0-53.022-24.442-53.022-54.484V962.174c0-12.12,9.6-21.981,21.4-21.981h34.844c12.77,0,23.159,10.672,23.159,23.79v20.33c0,19.566,15.481,35.485,34.509,35.485,19.6,0,35.54,16.38,35.54,36.515a3.724,3.724,0,0,1-3.717,3.723M77.283,941.223c-11.231,0-20.368,9.4-20.368,20.95v43.378c0,29.474,23.323,53.454,51.991,53.454h92.713a2.693,2.693,0,0,0,2.686-2.693c0-19.566-15.481-35.484-34.509-35.484-19.6,0-35.54-16.381-35.54-36.515v-20.33c0-12.55-9.927-22.759-22.128-22.759Z" transform="translate(-42.954 -722.661)"/>
    <path id="Path_89953" data-name="Path 89953" d="M4.465,757.465a7,7,0,0,1-3.46-3.018c-1.165-2.079-1.789-5.409.831-10.166,5.917-10.744,15.8-5.664,19.579-6.908,8.471-2.789,6.468-7.368,9.908-11.818,2.574-3.329,11.466-9.61,24.971,2.09,0,0,6.065,8.277,12.939,5.127,8.444-3.869,25.414,4.885,20.052,17.9a15.412,15.412,0,0,1-7.725,8.2,21.7,21.7,0,0,1-2.02.811,6.746,6.746,0,0,0-4.282,5.05c-1.727,7.926-8.262,23.227-32.518,7.83a6.088,6.088,0,0,0-5.892-.429c-2.324,1.08-4.847,5.264-16.06,3.5C13.586,774.5,11.3,766.117,9.4,762.3a9.762,9.762,0,0,0-4.931-4.838" transform="translate(0 -554.075)" fill="#004290"/>
    <path id="Path_89954" data-name="Path 89954" d="M234.636,977.323c-9.539,2.983-27.813-5.294-30.93-19.176-2.471-11.007-6.333-16.593-7.827-18.435a13.965,13.965,0,0,0-2.9-3.456c-8.885-7.809-24.273-5.281-30.933-4.187-7.554,1.241-13.812,2.27-18.068,7.062a13.167,13.167,0,0,0-2.482,4.025v-.006c-8.131,15.31-1.541,31.117,2.524,38.419.67,29.279-9.011,24.678-6.391,37.678,3.691,18.315,33.185,11.468,43.914,9.129,3.764-.821,23.473,5.031,28.29-10.174,2.811-8.874-2.531-12.97-7.249-28.068,24.166,15.021,42.117-10.593,42.117-10.593l1.862-8.979a34.341,34.341,0,0,1-11.931,6.76" transform="translate(-105.442 -715.436)" fill="#fff"/>
    <path id="Path_89955" data-name="Path 89955" d="M156.826,1030.413c-5.716,0-11.233-.9-15.311-3.562a13.821,13.821,0,0,1-6.112-9.2c-1.175-5.831.05-8.228,1.745-11.546,2.11-4.129,5-9.778,4.638-26.095-4.427-8-10.552-23.565-2.47-38.792a13.64,13.64,0,0,1,2.557-4.127c4.378-4.929,10.862-5.995,18.37-7.228,6.671-1.1,22.289-3.662,31.356,4.308a14.459,14.459,0,0,1,2.98,3.549c1.572,1.949,5.433,7.606,7.9,18.616,1.342,5.979,5.858,11.57,12.391,15.34,6.178,3.565,13.2,4.922,17.883,3.457a34.13,34.13,0,0,0,11.733-6.645.515.515,0,0,1,.856.481l-1.862,8.979a.513.513,0,0,1-.083.191,44.612,44.612,0,0,1-12.152,11.075c-6.758,4.073-17.276,7.348-29.48.364a117.818,117.818,0,0,0,4.331,11.046c2.648,6.054,4.4,10.054,2.5,16.036-3.918,12.368-17.349,11.248-24.565,10.646a19.631,19.631,0,0,0-4.107-.124l-.672.147c-5.337,1.168-14.1,3.084-22.434,3.084M140.2,941.747c-7.854,14.853-1.778,30.1,2.547,37.874a.515.515,0,0,1,.065.239c.382,16.674-2.583,22.477-4.748,26.714-1.66,3.249-2.757,5.4-1.653,10.874a12.824,12.824,0,0,0,5.665,8.54c9.663,6.307,28.1,2.273,36.961.335l.673-.147a18.736,18.736,0,0,1,4.412.1c7.416.619,19.827,1.654,23.5-9.93,1.778-5.613.181-9.263-2.463-15.312a114.489,114.489,0,0,1-4.786-12.446.515.515,0,0,1,.764-.591c9.834,6.113,19.778,6.23,29.555.349A43.659,43.659,0,0,0,242.5,977.631l1.536-7.406a34.933,34.933,0,0,1-10.969,5.891c-4.948,1.547-12.29.155-18.705-3.548-6.781-3.914-11.476-9.748-12.881-16.007-2.437-10.856-6.214-16.361-7.724-18.223a.53.53,0,0,1-.045-.064,13.422,13.422,0,0,0-2.791-3.329c-8.7-7.648-23.982-5.137-30.508-4.065-7.617,1.252-13.633,2.24-17.768,6.9a12.63,12.63,0,0,0-2.387,3.869.508.508,0,0,1-.054.1m92.709,33.877h0Z" transform="translate(-103.717 -713.738)"/>
    <path id="Path_89956" data-name="Path 89956" d="M376.025,1027.278s17.4-6.343,22.834-17.94l11.2-10.438s-.158,5.045-3.484,7.152c0,0,2.855,5.75-1.358,9.718,0,0-3.16,2.512-5.043,2.557,0,0-5.516,18.119-20.409,23.514a26.482,26.482,0,0,1-3.741-14.563" transform="translate(-288.999 -767.785)" fill="#fff"/>
    <path id="Path_89957" data-name="Path 89957" d="M378.053,1040.645a.515.515,0,0,1-.431-.232,26.739,26.739,0,0,1-3.825-14.874.515.515,0,0,1,.338-.456c.172-.063,17.266-6.408,22.544-17.675a.518.518,0,0,1,.116-.158L408,996.811a.515.515,0,0,1,.866.393c-.007.209-.194,4.983-3.359,7.321.574,1.445,2.122,6.359-1.645,9.907-.157.127-2.986,2.36-5.012,2.664-.853,2.51-6.775,18.5-20.618,23.517a.521.521,0,0,1-.176.031m-3.242-14.716a26.349,26.349,0,0,0,3.461,13.569c14.189-5.423,19.643-22.856,19.7-23.033a.515.515,0,0,1,.48-.365c1.4-.034,3.894-1.777,4.735-2.446,3.846-3.625,1.326-8.865,1.217-9.086a.516.516,0,0,1,.186-.664c2.032-1.287,2.8-3.812,3.08-5.378l-10.1,9.409c-5.158,10.864-20.279,17.042-22.759,17.994" transform="translate(-287.286 -766.073)"/>
    <path id="Path_89958" data-name="Path 89958" d="M231.571,1182.194c-14.5,0-22.822-7.184-22.934-7.283a.515.515,0,0,1,.684-.771c.147.13,14.957,12.868,39.608,3.721a.515.515,0,1,1,.358.966,50.737,50.737,0,0,1-17.716,3.366" transform="translate(-160.232 -902.38)"/>
    <path id="Path_89959" data-name="Path 89959" d="M247.033,1026.266c-12.632,0-19.987-7.193-24.016-13.535a45.459,45.459,0,0,1-6.011-15.464.515.515,0,0,1,1.018-.157,44.357,44.357,0,0,0,5.879,15.1c6.17,9.694,15.129,14.018,26.626,12.849a.515.515,0,1,1,.1,1.025,35.6,35.6,0,0,1-3.6.187" transform="translate(-166.793 -766.073)"/>
    <path id="Path_89960" data-name="Path 89960" d="M370.754,999.238a.489.489,0,0,1-.075-.006.515.515,0,0,1-.435-.584c2.272-15.533-4.836-24.322-4.908-24.41a.515.515,0,0,1,.792-.659c.307.368,7.478,9.2,5.135,25.218a.516.516,0,0,1-.509.441" transform="translate(-280.717 -748.18)"/>
    <path id="Path_89961" data-name="Path 89961" d="M285.337,856.06c-.483-3.236.291-11.821.15-11.613-1.386,2.033-5.948-.372-10.056-.534s-2.726,6.008-2.726,6.008-1.2-4.187-3.768-1.566c-1.488,1.521.153,3.484,1.681,4.769-.42.478-7.821,8.454-12.353,13.2l10.054,7.63,5.033-4.7-1.026-1.635a3.915,3.915,0,0,1-.173-3.857l2.461-4.172a11.121,11.121,0,0,0,1.937,1.924,3.162,3.162,0,0,0,4.1-.331,11.669,11.669,0,0,0,3.2-4.866Z" transform="translate(-198.511 -648.654)" fill="#fff"/>
    <path id="Path_89962" data-name="Path 89962" d="M266.607,872.754a.512.512,0,0,1-.311-.1l-10.054-7.63a.515.515,0,0,1-.061-.767c4.141-4.333,10.422-11.092,11.991-12.8a5.494,5.494,0,0,1-2.044-3.344,2.372,2.372,0,0,1,.729-1.826,2.527,2.527,0,0,1,2.419-.962,2.209,2.209,0,0,1,.979.568,5.139,5.139,0,0,1,.933-3.178,2.98,2.98,0,0,1,2.55-1.025,25.632,25.632,0,0,1,4.609.764c2.318.533,4.321.993,5-.005a.526.526,0,0,1,.6-.2c.4.137.4.137.278,2.4a65.851,65.851,0,0,0-.089,9.628.516.516,0,0,1-.423.584l-1.182.2a12.363,12.363,0,0,1-3.236,4.783,3.681,3.681,0,0,1-4.748.381,9.553,9.553,0,0,1-1.565-1.465l-2.095,3.551a3.406,3.406,0,0,0,.165,3.321l1.026,1.634a.516.516,0,0,1-.085.65l-5.033,4.7a.515.515,0,0,1-.352.139m-9.283-8.207,9.248,7.019,4.405-4.114-.8-1.275a4.452,4.452,0,0,1-.2-4.365l2.476-4.2a.515.515,0,0,1,.841-.067,10.319,10.319,0,0,0,1.835,1.831,2.641,2.641,0,0,0,3.447-.281,11.1,11.1,0,0,0,3.061-4.643.516.516,0,0,1,.406-.358l1-.171a76.14,76.14,0,0,1,.141-9.336c.015-.267.03-.529.042-.767-1.234.529-3.07.106-5.12-.365a24.485,24.485,0,0,0-4.418-.738,1.986,1.986,0,0,0-1.718.655c-1,1.2-.689,3.817-.485,4.726a.515.515,0,0,1-1,.255c-.135-.465-.7-1.837-1.475-2.032-.4-.1-.886.128-1.429.684a1.364,1.364,0,0,0-.437,1.055c.04.814.779,1.864,2.081,2.959a.516.516,0,0,1,.055.735c-.388.442-7.321,7.918-11.969,12.794" transform="translate(-196.799 -646.943)"/>
    <path id="Path_89963" data-name="Path 89963" d="M325.533,906.924l.786,1.1Z" transform="translate(-250.214 -697.089)" fill="#fff"/>
    <path id="Path_89964" data-name="Path 89964" d="M324.607,906.823a.515.515,0,0,1-.419-.215l-.786-1.1a.515.515,0,1,1,.838-.6l.786,1.1a.515.515,0,0,1-.418.815" transform="translate(-248.502 -695.377)"/>
    <path id="Path_89965" data-name="Path 89965" d="M671.149,1611.417c-.1.41,4.717,22.448,4.717,22.448l-11.07-1.853-3.334-18.633Z" transform="translate(-508.42 -1238.584)" fill="#fff"/>
    <path id="Path_89966" data-name="Path 89966" d="M674.154,1632.669a.488.488,0,0,1-.085-.007L663,1630.809a.516.516,0,0,1-.422-.417l-3.335-18.633a.515.515,0,0,1,.4-.6l9.687-1.962a.516.516,0,0,1,.617.53c.075.915,2.848,13.813,4.706,22.313a.515.515,0,0,1-.5.625m-10.626-2.817,9.961,1.668c-3.289-15.064-4.22-19.718-4.471-21.2l-8.671,1.756Z" transform="translate(-506.708 -1236.873)"/>
    <path id="Path_89967" data-name="Path 89967" d="M660.374,1672.1a4.784,4.784,0,0,1,2.877-1.178,4.6,4.6,0,0,1,4.315,2.788c1.92,4.266,6.981,16.151,8.411,25.865.506,3.433-2.084,6.225-6.121,3.976-6.615-3.686-15.792-12.15-20.6-24.649a4.528,4.528,0,0,1,.551-4.3,21.6,21.6,0,0,1,2.908-3.28,3.026,3.026,0,0,1,3.943-.063l1.04.855a2.084,2.084,0,0,0,2.672-.019" transform="translate(-498.806 -1284.045)" fill="#fff"/>
    <path id="Path_89968" data-name="Path 89968" d="M670.861,1703.145a6.122,6.122,0,0,1-2.977-.879c-6.921-3.857-16.027-12.428-20.826-24.914a5.02,5.02,0,0,1,.616-4.785,21.778,21.778,0,0,1,2.98-3.359,3.523,3.523,0,0,1,4.614-.077l1.04.855a1.575,1.575,0,0,0,2.013-.016,5.3,5.3,0,0,1,3.186-1.3,5.147,5.147,0,0,1,4.807,3.092c2.066,4.591,7.025,16.315,8.451,26a4.767,4.767,0,0,1-1.715,4.722,3.808,3.808,0,0,1-2.189.658M653,1669.341a2.471,2.471,0,0,0-1.655.635,20.726,20.726,0,0,0-2.836,3.2,3.993,3.993,0,0,0-.486,3.806c4.7,12.23,13.6,20.615,20.366,24.384,1.6.89,3.046.986,4.079.273a3.758,3.758,0,0,0,1.282-3.724c-1.408-9.558-6.324-21.177-8.372-25.729a4.1,4.1,0,0,0-3.823-2.485,4.227,4.227,0,0,0-2.568,1.058,2.605,2.605,0,0,1-3.331.023l-1.04-.855a2.542,2.542,0,0,0-1.617-.586" transform="translate(-497.083 -1282.313)"/>
    <path id="Path_89969" data-name="Path 89969" d="M683.179,1723.536c-.871,0-10.205-.545-21.524-22.915a.515.515,0,0,1,.92-.465c11.344,22.42,20.524,22.352,20.621,22.35a.507.507,0,0,1,.533.5.515.515,0,0,1-.5.533h-.054" transform="translate(-508.525 -1306.574)"/>
    <path id="Path_89970" data-name="Path 89970" d="M722.537,1738.623a.515.515,0,0,1-.189-.995l5.247-2.071a.515.515,0,0,1,.379.958l-5.247,2.071a.512.512,0,0,1-.189.036" transform="translate(-554.967 -1333.975)"/>
    <path id="Path_89971" data-name="Path 89971" d="M714.589,1720.169a.515.515,0,0,1-.187-1l6.155-2.4a.515.515,0,1,1,.374.96l-6.155,2.4a.519.519,0,0,1-.187.035" transform="translate(-548.858 -1319.541)"/>
    <path id="Path_89972" data-name="Path 89972" d="M449.546,1612.457c-.262.331-5.155,22.352-5.155,22.352l-9.266-6.334,4.806-18.308Z" transform="translate(-334.45 -1237.622)" fill="#fff"/>
    <path id="Path_89973" data-name="Path 89973" d="M442.679,1633.612a.515.515,0,0,1-.291-.09l-9.265-6.334a.516.516,0,0,1-.208-.556l4.806-18.308a.515.515,0,0,1,.618-.37l9.615,2.291a.515.515,0,0,1,.337.74c-.317.862-3.221,13.731-5.108,22.224a.515.515,0,0,1-.5.4m-8.675-7.07,8.337,5.7c3.347-15.051,4.458-19.665,4.855-21.119l-8.606-2.051Z" transform="translate(-332.739 -1235.91)"/>
    <path id="Path_89974" data-name="Path 89974" d="M421.891,1664.193a4.784,4.784,0,0,1,3.106.14,4.6,4.6,0,0,1,2.743,4.344c-.051,4.677-.454,17.59-3.239,27-.984,3.328-4.508,4.772-7.225,1.035-4.453-6.125-9.222-17.662-8.328-31.023a4.528,4.528,0,0,1,2.305-3.666,21.57,21.57,0,0,1,4.017-1.754,3.026,3.026,0,0,1,3.6,1.6l.584,1.213a2.084,2.084,0,0,0,2.432,1.106" transform="translate(-314.246 -1276.036)" fill="#fff"/>
    <path id="Path_89975" data-name="Path 89975" d="M419.129,1697.723c-1.024,0-2.532-.426-3.984-2.423-4.659-6.409-9.319-18.013-8.425-31.36a5.018,5.018,0,0,1,2.57-4.083,21.772,21.772,0,0,1,4.116-1.8,3.523,3.523,0,0,1,4.219,1.869l.584,1.213a1.573,1.573,0,0,0,1.833.832,5.3,5.3,0,0,1,3.437.161,5.14,5.14,0,0,1,3.062,4.826c-.055,5.034-.484,17.758-3.26,27.145a4.767,4.767,0,0,1-3.541,3.563,3.586,3.586,0,0,1-.611.052m-4.693-38.786a2.487,2.487,0,0,0-.729.11,20.721,20.721,0,0,0-3.918,1.712,3.992,3.992,0,0,0-2.041,3.25c-.875,13.073,3.678,24.422,8.231,30.685,1.074,1.478,2.347,2.175,3.586,1.962a3.756,3.756,0,0,0,2.728-2.839c2.74-9.264,3.163-21.873,3.218-26.865a4.1,4.1,0,0,0-2.424-3.862,4.223,4.223,0,0,0-2.774-.12,2.605,2.605,0,0,1-3.032-1.379l-.584-1.213a2.511,2.511,0,0,0-2.26-1.441" transform="translate(-312.532 -1274.317)"/>
    <path id="Path_89976" data-name="Path 89976" d="M431.413,1713.957a.513.513,0,0,1-.2-.04c-.37-.156-9.055-4.1-9.947-29.862a.515.515,0,0,1,.5-.533.521.521,0,0,1,.533.5c.87,25.108,9.233,28.911,9.317,28.947a.515.515,0,0,1-.2.99" transform="translate(-323.798 -1294.006)"/>
    <path id="Path_89977" data-name="Path 89977" d="M463.494,1750.742h-.031l-5.632-.327a.515.515,0,1,1,.06-1.029l5.632.327a.515.515,0,0,1-.029,1.03" transform="translate(-351.53 -1344.63)"/>
    <path id="Path_89978" data-name="Path 89978" d="M464.545,1731.722h-.033l-6.592-.414a.515.515,0,1,1,.064-1.029l6.591.414a.515.515,0,0,1-.032,1.03" transform="translate(-351.6 -1329.944)"/>
    <path id="Path_89979" data-name="Path 89979" d="M239.255,1242.859s67.407-2.926,74.776,3.918c10,9.282,27.168,86.557,27.168,86.557l-16.58,4.649s-24.982-63.418-31.172-63.418-64.551-2.082-64.551-2.082Z" transform="translate(-175.936 -954.821)" fill="#004290"/>
    <path id="Path_89980" data-name="Path 89980" d="M210.05,1237.585a11.087,11.087,0,0,0-11.343,8.472c-1.942,8.033-3.624,19.018.723,21.944,7.074,4.76,58.068,4.356,56.3,3.76s-4.561,42.733-4.561,59.395l16.056.62s25.587-67.007,22.829-74.49c-4.934-13.385-42.916-16.452-55.07-18.241-1.633-.24-15.494-.977-24.934-1.46" transform="translate(-151.187 -951.234)" fill="#004290"/>
    <path id="Path_89981" data-name="Path 89981" d="M464.724,1305.174a.515.515,0,0,1-.491-.673q.866-2.7,1.713-5.312c4.493-13.884,8.374-25.875,6.768-30.722-3.411-10.294-28.919-14.24-37.3-15.536a.515.515,0,1,1,.158-1.019c14.815,2.292,34.886,6.468,38.121,16.231,1.712,5.168-2.029,16.728-6.765,31.364q-.842,2.6-1.712,5.308a.515.515,0,0,1-.49.358" transform="translate(-334.336 -962.253)" fill="#fff"/>
    <path id="Path_89982" data-name="Path 89982" d="M1201.713,1377.644l7.825,80.123,5.584-.234-2.774-84.231Z" transform="translate(-923.673 -1055.562)" fill="#fff"/>
    <path id="Path_89983" data-name="Path 89983" d="M1207.825,1456.571a.515.515,0,0,1-.512-.465l-7.825-80.124a.516.516,0,0,1,.318-.527l10.634-4.342a.515.515,0,0,1,.71.46l2.774,84.231a.515.515,0,0,1-.493.532l-5.584.235h-.022m-7.274-80.307,7.74,79.256,4.587-.193-2.733-82.98Z" transform="translate(-921.961 -1053.85)"/>
    <path id="Path_89984" data-name="Path 89984" d="M1610.805,1364.665l-7.636,83.205-5.773-.434,2.774-87.27Z" transform="translate(-1227.807 -1045.465)" fill="#fff"/>
    <path id="Path_89985" data-name="Path 89985" d="M1601.459,1446.674h-.039l-5.773-.434a.516.516,0,0,1-.476-.53l2.774-87.27a.515.515,0,0,1,.716-.458l10.634,4.5a.515.515,0,0,1,.312.521l-7.636,83.205a.514.514,0,0,1-.512.468m-5.242-1.426,4.775.359,7.555-82.326-9.6-4.059Z" transform="translate(-1226.096 -1043.753)"/>
    <path id="Path_89986" data-name="Path 89986" d="M1734.065,1281.185l-2.246,87.372-4.508-.977-4.134-90.549Z" transform="translate(-1324.485 -981.565)" fill="#fff"/>
    <path id="Path_89987" data-name="Path 89987" d="M1730.107,1367.36a.524.524,0,0,1-.109-.012l-4.508-.977a.515.515,0,0,1-.406-.48l-4.134-90.549a.515.515,0,0,1,.7-.5l10.888,4.154a.515.515,0,0,1,.331.495l-2.246,87.372a.515.515,0,0,1-.515.5m-4.011-1.912,3.512.761,2.221-86.385-9.813-3.744Z" transform="translate(-1322.774 -979.853)"/>
    <path id="Path_89988" data-name="Path 89988" d="M1353.368,1272.74l-2.246,87.372-4.684.025-3.958-91.552Z" transform="translate(-1031.871 -975.073)" fill="#fff"/>
    <path id="Path_89989" data-name="Path 89989" d="M1344.726,1358.942a.515.515,0,0,1-.515-.493l-3.958-91.551a.515.515,0,0,1,.7-.5l10.888,4.154a.515.515,0,0,1,.331.495l-2.246,87.372a.515.515,0,0,1-.512.5l-4.684.026Zm-3.41-91.306,3.9,90.273,3.688-.02,2.224-86.508Z" transform="translate(-1030.158 -973.362)"/>
    <path id="Path_89990" data-name="Path 89990" d="M1254.644,914.3v20.33c0,19.882-15.681,36-35.025,36s-35.025,16.118-35.025,36a3.2,3.2,0,0,0,3.2,3.208h92.713c29,0,52.507-24.163,52.507-53.969V912.49c0-11.855-9.35-21.465-20.884-21.465h-34.844c-12.506,0-22.644,10.42-22.644,23.274" transform="translate(-910.515 -684.869)" fill="#fff"/>
    <path id="Path_89991" data-name="Path 89991" d="M1278.8,1008.641h-92.713a3.724,3.724,0,0,1-3.717-3.723c0-20.135,15.943-36.515,35.54-36.515,19.028,0,34.509-15.918,34.509-35.485v-20.33c0-13.118,10.389-23.789,23.159-23.789h34.844c11.8,0,21.4,9.861,21.4,21.981v43.378c0,30.043-23.785,54.484-53.022,54.484m-3.222-118.812c-12.2,0-22.128,10.21-22.128,22.759v20.33c0,20.135-15.943,36.516-35.54,36.516-19.029,0-34.509,15.918-34.509,35.485a2.693,2.693,0,0,0,2.686,2.693H1278.8c28.668,0,51.991-23.979,51.991-53.454V910.779c0-11.552-9.137-20.95-20.369-20.95Z" transform="translate(-908.803 -683.157)"/>
    <path id="Path_89992" data-name="Path 89992" d="M1329.226,994.915s-5.054,45.942-38.99,48.948l38.99.555s14.437-29.287,15.022-40.691-15.022-8.812-15.022-8.812" transform="translate(-991.714 -764.527)" fill="#fff"/>
    <path id="Path_89993" data-name="Path 89993" d="M1327.513,1043.2h-.007l-38.99-.555a.515.515,0,0,1-.038-1.028c17.276-1.531,26.822-14.593,31.788-25.281a84.2,84.2,0,0,0,6.735-23.21.516.516,0,0,1,.428-.452c.354-.059,8.722-1.4,13.093,2.507a8.128,8.128,0,0,1,2.528,6.839c-.585,11.379-14.484,39.693-15.075,40.892a.515.515,0,0,1-.462.287m-33.305-1.5,32.986.469c1.5-3.087,14.284-29.634,14.828-40.2a7.149,7.149,0,0,0-2.185-6.017c-3.511-3.135-10.2-2.521-11.861-2.312a85.93,85.93,0,0,1-6.764,23.108c-6.284,13.539-15.547,22.063-27,24.95" transform="translate(-990.002 -762.791)"/>
    <path id="Path_89994" data-name="Path 89994" d="M1467.268,865.316c-6.583-1.549-9.33-1.57-33.26-.7-5.849.212-12.806,7.561-13.494,13.38a83.648,83.648,0,0,1,3.217,13.32c1.765,11.067,1.905,27.462-7.755,41.349a46.551,46.551,0,0,1-8.981,9.617,30.1,30.1,0,0,0,10.342,5.535c7.721,2.3,11.6-.186,17.825,0,16.458.491,22.493,18.843,33.124,16.538,2.838-.615,6.6-2.832,10.128-10.267a114.572,114.572,0,0,0,4.769-21.587,118.524,118.524,0,0,0-5.634-52.236c-1.166-3.659-2.519-13.121-10.28-14.947" transform="translate(-1081.458 -664.126)" fill="#004290"/>
    <path id="Path_89995" data-name="Path 89995" d="M1439.475,906s3.87-31.065,15.023-33.717l-2.561,40.864Z" transform="translate(-1106.424 -670.46)" fill="#004290"/>
    <path id="Path_89996" data-name="Path 89996" d="M1684.459,982.169c5.094,2.158,11.077,4.7,16.347,6.968,0,.066,0,.13,0,.2l-16.345-7.054Z" transform="translate(-1294.726 -754.925)" fill="#fff"/>
    <path id="Path_89997" data-name="Path 89997" d="M1699.1,988.136a.512.512,0,0,1-.2-.042l-16.345-7.054a.516.516,0,0,1-.311-.449l-.005-.11a.515.515,0,0,1,.716-.5c6.223,2.637,11.877,5.046,16.349,6.968a.515.515,0,0,1,.311.46l0,.2a.515.515,0,0,1-.515.525" transform="translate(-1293.014 -753.213)"/>
    <path id="Path_89998" data-name="Path 89998" d="M1682.915,907.268s-1.09-18.454-2.683-25.584c-3.35-15-22.768-15.158-22.768-15.158l3.391,38.177Z" transform="translate(-1273.977 -666.038)" fill="#004290"/>
    <path id="Path_89999" data-name="Path 89999" d="M1567.725,761.643l-.658-9.333c-.446-.031-.753-.05-.844-.051-2.6-.03-3.446-.874-3.67-3.012a15.977,15.977,0,0,1,.462-5.81,1.239,1.239,0,0,0-.053-.8l-.445-1.043a.909.909,0,0,1,.3-.935l.237-.195a9.517,9.517,0,0,0,2.119-2.5c.52-.875,1.4-2.513,2.011-2.8,1.709-.817,8.642-4.449,12.518,1.9,3.022,4.948-1.916,11.759-3.71,13.99-.434.54,2.93,11.115,2.93,11.115l4.349,1.052s-3.356,5.966-13.547,3.5c-7.258-1.757-6.1-4.461-6.1-4.461Z" transform="translate(-1200.958 -563.7)" fill="#fff"/>
    <path id="Path_90000" data-name="Path 90000" d="M1572.712,766.142a20.5,20.5,0,0,1-4.821-.62c-3.443-.833-5.562-2-6.3-3.469a2.075,2.075,0,0,1-.159-1.695.514.514,0,0,1,.4-.308l3.634-.536-.593-8.409c-.187-.012-.316-.019-.368-.02-2.782-.032-3.914-.974-4.176-3.474a16.489,16.489,0,0,1,.476-5.994.728.728,0,0,0-.029-.467l-.444-1.043a.5.5,0,0,1-.023-.068,1.422,1.422,0,0,1,.47-1.468l.237-.194a8.979,8.979,0,0,0,2-2.369l.232-.4a7.018,7.018,0,0,1,2-2.609l.182-.088c5.977-2.891,10.35-2.156,13,2.181,3.074,5.032-1.483,11.741-3.676,14.49,0,.891,1.414,5.886,2.858,10.451l4.067.984a.515.515,0,0,1,.328.753c-.12.213-2.55,4.366-9.3,4.367m-10.357-5.126a1.421,1.421,0,0,0,.183.622c.352.656,1.548,1.9,5.595,2.883,7.782,1.884,11.411-1.312,12.557-2.678l-3.6-.871a.514.514,0,0,1-.37-.345c-3.447-10.839-3.037-11.349-2.84-11.594,2.026-2.519,6.439-8.868,3.673-13.4-3.506-5.74-9.651-2.767-11.671-1.791l-.186.09a8.826,8.826,0,0,0-1.554,2.2l-.237.4a10.011,10.011,0,0,1-2.235,2.638l-.237.194a.4.4,0,0,0-.136.375l.428,1a1.766,1.766,0,0,1,.078,1.132,15.475,15.475,0,0,0-.448,5.626c.182,1.741.682,2.522,3.164,2.551.094,0,.412.02.873.052a.516.516,0,0,1,.479.478l.658,9.333a.515.515,0,0,1-.439.546Z" transform="translate(-1199.247 -562.013)"/>
    <path id="Path_90001" data-name="Path 90001" d="M1581.4,703c-1.879-.406-4.039-.116-4.951-.452-1.471-.542-1.512-2.305-3.547-2.8-2.463-.6-3.491.453-4.455,1.921a4.154,4.154,0,0,0-.417.829c-1.549,4.158.406,6.186,1.277,6.846,0,0,5.542,2.867,6.491,3.686a5.129,5.129,0,0,1,1.268,5.187.784.784,0,0,0,.347.857.738.738,0,0,0,.993-.226c.72-1.046,2.295-3.069,3.415-2.59,1.407.6.969,4.825-2.136,5.312a2.031,2.031,0,0,0-1.634,2.126,2.065,2.065,0,0,0,1.589,1.653,2.124,2.124,0,0,0,1.6-.411c2.026-1.3,7.741-6.787,8.451-11.71.855-5.931-5.788-9.687-8.288-10.226" transform="translate(-1204.789 -537.716)" fill="#004290"/>
    <path id="Path_90002" data-name="Path 90002" d="M1577.619,809.041a.515.515,0,0,1-.02-1.03,6.269,6.269,0,0,0,3.361-1.245.515.515,0,1,1,.667.785,7.226,7.226,0,0,1-3.99,1.49h-.019" transform="translate(-1212.21 -620.01)"/>
    <path id="Path_90003" data-name="Path 90003" d="M1329.918,1566.567c-.948-.96-6.428-18.027-6.428-18.027l-10.829,7.735,11.872,15.974Z" transform="translate(-1008.951 -1190.255)" fill="#fff"/>
    <path id="Path_90004" data-name="Path 90004" d="M1322.821,1571.052h-.031a.515.515,0,0,1-.383-.207l-11.872-15.974a.514.514,0,0,1,.114-.726l10.829-7.735a.515.515,0,0,1,.79.262c2.079,6.473,5.63,17.036,6.31,17.828a.544.544,0,0,1,0,.712l-5.385,5.682a.515.515,0,0,1-.374.161m-11.145-16.375,11.193,15.06,4.694-4.953c-1.283-2.454-4.885-13.489-6.06-17.128Z" transform="translate(-1007.239 -1188.542)"/>
    <path id="Path_90005" data-name="Path 90005" d="M1295.2,1620.668l7.2-.042a14.168,14.168,0,0,0,11.794-6.45l7.12-11.287a6.343,6.343,0,0,0-2.387-8.983c-2.972-1.582-6.086-3.122-6.816-3.053-1.482.141-2.08,7.158-2.08,7.158l-6.416.247s-3.17,13.2-5.958,14.7a12.251,12.251,0,0,0-4.4,4.162,2.3,2.3,0,0,0,1.945,3.553" transform="translate(-993.745 -1222.776)" fill="#004290"/>
    <path id="Path_90006" data-name="Path 90006" d="M1304.323,1641.246a.515.515,0,0,1-.076-1.025l9.851-1.485a6.938,6.938,0,0,0,4.936-3.312l8.7-14.558a.515.515,0,1,1,.884.529l-8.7,14.558a7.965,7.965,0,0,1-5.667,3.8l-9.851,1.485a.52.52,0,0,1-.078.006" transform="translate(-1002.147 -1245.653)" fill="#fff"/>
    <path id="Path_90007" data-name="Path 90007" d="M1338.643,1654.073a.518.518,0,0,1-.136-.018l-5.488-1.5a.515.515,0,0,1,.271-.994l5.488,1.5a.515.515,0,0,1-.135,1.012" transform="translate(-1024.307 -1269.428)" fill="#fff"/>
    <path id="Path_90008" data-name="Path 90008" d="M1332.3,1668.244a.507.507,0,0,1-.123-.015l-3.68-.9a.515.515,0,1,1,.245-1l3.679.9a.515.515,0,0,1-.122,1.016" transform="translate(-1020.818 -1280.777)" fill="#fff"/>
    <path id="Path_90009" data-name="Path 90009" d="M1163.642,1592.5l-12.572,12.647-6.665-2.451,11.589-16.18Z" transform="translate(-879.624 -1219.447)" fill="#fff"/>
    <path id="Path_90010" data-name="Path 90010" d="M1149.358,1603.953a.513.513,0,0,1-.178-.032l-6.665-2.45a.515.515,0,0,1-.241-.784l11.589-16.18a.516.516,0,0,1,.737-.106l7.648,5.984a.515.515,0,0,1,.048.769l-12.572,12.646a.513.513,0,0,1-.365.152m-5.852-3.216,5.72,2.1,11.93-12-6.767-5.3Z" transform="translate(-877.912 -1217.735)"/>
    <path id="Path_90011" data-name="Path 90011" d="M1254.456,1203.58s-57.458-7.051-74.544,8.541,26.971,82.644,26.971,82.644l13.933-10.893L1207.6,1236.48l53.114-15.9Z" transform="translate(-903.89 -923.885)" fill="#fff"/>
    <path id="Path_90012" data-name="Path 90012" d="M1205.152,1293.422a.5.5,0,0,1-.083-.007.515.515,0,0,1-.348-.226c-1.809-2.753-44.1-67.6-26.888-83.307,17.065-15.573,72.6-8.961,74.954-8.672a.515.515,0,0,1,.421.334l6.258,17a.515.515,0,0,1-.336.671l-52.63,15.757,13.08,46.9a.516.516,0,0,1-.179.545l-13.933,10.893a.516.516,0,0,1-.317.109m19.244-92.748c-17.015,0-37.039,1.912-45.868,9.969-15.83,14.447,22.882,75.509,26.75,81.511l13.218-10.334-13.123-47.059a.516.516,0,0,1,.349-.632l52.589-15.745-5.959-16.187a266.615,266.615,0,0,0-27.955-1.522" transform="translate(-902.159 -922.027)"/>
    <path id="Path_90013" data-name="Path 90013" d="M1286.341,1220.379c-8.346,2.792-23.28,6.4-44.153,6.1a15.49,15.49,0,0,0-14.1,8.94c-6.183,12.782-19.564,35.8-41.361,50.714l-10.41-5.913,26.571-63.056a22.593,22.593,0,0,1,12.573-12.4l52.66-20.357s16.328-4.812,24.334,10.556c1.429,2.744,4.084-2.162,4.717.053,2.168,7.592-3.661,22.964-10.829,25.362" transform="translate(-904.153 -909.823)" fill="#fff"/>
    <path id="Path_90014" data-name="Path 90014" d="M1185.016,1285.051a.516.516,0,0,1-.254-.067l-10.41-5.914a.515.515,0,0,1-.22-.648l26.571-63.056a23.228,23.228,0,0,1,12.862-12.681l52.66-20.358c.207-.063,16.869-4.765,24.976,10.8.169.325.355.515.552.566.415.107,1.04-.314,1.593-.685.659-.442,1.282-.86,1.887-.638a1.24,1.24,0,0,1,.723.906c2.2,7.72-3.675,23.488-11.161,25.993l-.163-.489.163.489c-8.845,2.96-23.715,6.427-44.324,6.13l-.213,0a14.891,14.891,0,0,0-13.416,8.65c-6.073,12.556-19.545,35.867-41.534,50.916a.515.515,0,0,1-.291.09m-9.758-6.651,9.732,5.528c21.635-14.92,34.919-37.919,40.923-50.331a16.114,16.114,0,0,1,14.571-9.231c20.463.3,35.213-3.142,43.982-6.077,6.918-2.315,12.549-17.546,10.5-24.732a.531.531,0,0,0-.1-.231,3.412,3.412,0,0,0-.942.535,3.189,3.189,0,0,1-2.422.827,1.95,1.95,0,0,1-1.211-1.088c-7.711-14.8-23.081-10.49-23.731-10.3l-52.619,20.344a22.2,22.2,0,0,0-12.284,12.12Z" transform="translate(-902.441 -908.223)"/>
    <path id="Path_90015" data-name="Path 90015" d="M1060.609,1647.143a36.26,36.26,0,0,1-.423,10.135,5.528,5.528,0,0,1-5.419,4.315h-30.855a2.363,2.363,0,0,1-1.515-4.174c5.486-4.6,15.579-11.628,27.988-13.691l3.461,4.85Z" transform="translate(-785.191 -1263.419)" fill="#004290"/>
    <path id="Path_90016" data-name="Path 90016" d="M1068.374,1701.389H1036.4a.515.515,0,1,1,0-1.03h31.977a.515.515,0,1,1,0,1.03" transform="translate(-796.209 -1306.947)" fill="#fff"/>
    <path id="Path_90017" data-name="Path 90017" d="M1107.888,1663.153a.517.517,0,0,1-.477-.319l-1.693-4.111a.515.515,0,1,1,.953-.393l1.693,4.111a.515.515,0,0,1-.281.673.509.509,0,0,1-.2.039" transform="translate(-849.859 -1274.397)" fill="#fff"/>
    <path id="Path_90018" data-name="Path 90018" d="M1085.391,1669.161a.515.515,0,0,1-.489-.354l-1.225-3.708a.515.515,0,0,1,.979-.323l1.225,3.708a.516.516,0,0,1-.49.677" transform="translate(-832.926 -1279.325)" fill="#fff"/>
    <path id="Path_90019" data-name="Path 90019" d="M1542.762,1027.167c-5.6,20.411-22.246,33.435-46.38,40.292l3.681,6.879c33.539-1.18,51.128-15.757,58.159-43.731Z" transform="translate(-1150.164 -789.512)" fill="#fff"/>
    <path id="Path_90020" data-name="Path 90020" d="M1498.352,1073.141a.515.515,0,0,1-.454-.272l-3.681-6.879a.516.516,0,0,1,.313-.739c25.236-7.17,40.721-20.6,46.024-39.932a.515.515,0,0,1,.609-.367l15.46,3.439a.515.515,0,0,1,.388.629c-7.276,28.949-25.91,42.969-58.641,44.12h-.018m-2.926-7.075,3.228,6.033c31.812-1.2,50.012-14.821,57.226-42.817l-14.465-3.218c-5.481,19.289-20.948,32.743-45.99,40" transform="translate(-1148.453 -787.799)"/>
    <path id="Path_90021" data-name="Path 90021" d="M1437.606,1179.745a2.961,2.961,0,0,0-1.62-1.45,11.473,11.473,0,0,1-1.477-.673l-6.568-3.485c-1.231-.6-2.99.8-4.266,1.221-3.854,1.266-11.834,4.248-11.177,7.049.709,3.022,7.567,1.592,10,.982.557-.139,5.6,1.686,7.188,1.806a5.2,5.2,0,0,0,3.786-.958,3.5,3.5,0,0,1,1.63-.378,2.993,2.993,0,0,0,2.338-1.1l.013-.016a2.547,2.547,0,0,0,.279-2.75Z" transform="translate(-1085.661 -902.364)" fill="#fff"/>
    <path id="Path_90022" data-name="Path 90022" d="M1428.7,1184.025c-.232,0-.484-.009-.759-.031a28.139,28.139,0,0,1-4.258-1.07,21.275,21.275,0,0,0-2.814-.742c-2.542.641-7.217,1.528-9.418.186a2.438,2.438,0,0,1-1.163-1.558c-.7-2.972,5.878-5.8,11.517-7.656a9.469,9.469,0,0,0,1.177-.531c1.118-.562,2.384-1.2,3.477-.663l6.582,3.493a10.842,10.842,0,0,0,1.409.643,3.461,3.461,0,0,1,1.9,1.7l.129.253a3.066,3.066,0,0,1-.336,3.307,3.514,3.514,0,0,1-2.75,1.3,2.972,2.972,0,0,0-1.394.319c-.165.087-.316.173-.462.256a4.9,4.9,0,0,1-2.844.79m-7.83-2.873a16,16,0,0,1,3.107.785,28.877,28.877,0,0,0,4.042,1.03,4.242,4.242,0,0,0,3.013-.626c.156-.09.318-.182.494-.275a4.031,4.031,0,0,1,1.866-.437,2.478,2.478,0,0,0,1.939-.9,2.041,2.041,0,0,0,.235-2.21l-.129-.253a2.43,2.43,0,0,0-1.335-1.2,11.766,11.766,0,0,1-1.544-.7l-6.568-3.485c-.618-.3-1.642.213-2.546.667a10.157,10.157,0,0,1-1.318.589c-7.071,2.323-11.223,4.791-10.836,6.442a1.425,1.425,0,0,0,.7.914c1.354.825,4.6.708,8.679-.314a.828.828,0,0,1,.2-.023" transform="translate(-1083.951 -900.649)"/>
    <path id="Path_90023" data-name="Path 90023" d="M440.742,1238.682h258.04c4.808,0,8.544,3.163,8,6.772l-17.819,118.213H676.1l11.154-110.946c.2-1.955-1.85-3.623-4.445-3.623H461.3c-3.882,0-6.944,2.5-6.65,5.42l11.043,109.843H452.829l-18.122-120.572c-.409-2.722,2.409-5.107,6.035-5.107" transform="translate(-334.098 -952.088)" fill="#fff"/>
    <path id="Path_90024" data-name="Path 90024" d="M463.986,1363.164H451.12a.515.515,0,0,1-.509-.439l-18.123-120.571a4.251,4.251,0,0,1,1.059-3.429,7.252,7.252,0,0,1,5.486-2.27h258.04a9.443,9.443,0,0,1,7.146,2.952,5.467,5.467,0,0,1,1.363,4.412l-17.819,118.213a.515.515,0,0,1-.51.438H674.388a.516.516,0,0,1-.513-.567l11.154-110.946a2.271,2.271,0,0,0-.631-1.755,4.473,4.473,0,0,0-3.3-1.3h-221.5a6.95,6.95,0,0,0-5.128,2.03,3.615,3.615,0,0,0-1.009,2.824L464.5,1362.6a.515.515,0,0,1-.513.567m-12.422-1.03h11.853L452.43,1252.858a4.679,4.679,0,0,1,1.27-3.618,7.989,7.989,0,0,1,5.892-2.369H681.1a5.513,5.513,0,0,1,4.065,1.64,3.3,3.3,0,0,1,.892,2.55l-11.1,110.379H686.81l17.753-117.775a4.395,4.395,0,0,0-1.125-3.586,8.407,8.407,0,0,0-6.365-2.593H439.033a6.217,6.217,0,0,0-4.706,1.912,3.2,3.2,0,0,0-.82,2.6Z" transform="translate(-332.389 -950.377)"/>
    <path id="Path_90025" data-name="Path 90025" d="M1197.207,1079.733l-13.867-40.866a4.568,4.568,0,0,0-3.837-2.058h-36.962a2.3,2.3,0,0,0-2.209,3.068c.218.572.453,1.137.643,1.719l12.533,38.212h0a4.1,4.1,0,0,0,4.1,4.033h68.209a4.105,4.105,0,0,0,4.1-4.108Z" transform="translate(-876.383 -796.923)" fill="#fff"/>
    <path id="Path_90026" data-name="Path 90026" d="M1224.113,1082.644H1155.9a4.642,4.642,0,0,1-4.612-4.443l-12.515-38.157c-.132-.4-.292-.813-.446-1.208l-.189-.488a2.746,2.746,0,0,1,.318-2.534,2.838,2.838,0,0,1,2.373-1.232H1177.8a5.059,5.059,0,0,1,4.269,2.292.5.5,0,0,1,.056.115l13.749,40.516h32.347a.516.516,0,0,1,.515.515,4.626,4.626,0,0,1-4.618,4.623m-71.843-4.768a.507.507,0,0,1,.05.21,3.605,3.605,0,0,0,3.584,3.527h68.209a3.6,3.6,0,0,0,3.551-3.077H1195.5a.515.515,0,0,1-.488-.35l-13.846-40.8a4.034,4.034,0,0,0-3.37-1.771h-36.962a1.821,1.821,0,0,0-1.524.786,1.716,1.716,0,0,0-.2,1.583l.185.48c.16.408.325.831.466,1.262Z" transform="translate(-874.675 -795.211)"/>
    <path id="Path_90027" data-name="Path 90027" d="M1249.273,1119.306a2.872,2.872,0,1,1-3.665-2.312,3.085,3.085,0,0,1,3.665,2.312" transform="translate(-955.922 -858.473)"/>
    <path id="Path_90028" data-name="Path 90028" d="M496.923,1229.251h-68.2a3.373,3.373,0,0,1-3.374-3.373v-.651H500.3v.651a3.373,3.373,0,0,1-3.373,3.373" transform="translate(-326.933 -941.747)" fill="#fff"/>
    <path id="Path_90029" data-name="Path 90029" d="M495.212,1228.055h-68.2a3.893,3.893,0,0,1-3.889-3.888v-.651a.515.515,0,0,1,.515-.515h74.952a.515.515,0,0,1,.515.515v.651a3.893,3.893,0,0,1-3.889,3.888m-71.063-4.024v.136a2.862,2.862,0,0,0,2.858,2.858h68.2a2.862,2.862,0,0,0,2.858-2.858v-.136Z" transform="translate(-325.222 -940.035)"/>
    <path id="Path_90030" data-name="Path 90030" d="M606.822,1085.593H563.935l13.626-40.11a4.482,4.482,0,0,1,3.763-2.016h36.255a2.25,2.25,0,0,1,2.167,3.005c-.214.56-.444,1.114-.631,1.684Z" transform="translate(-433.457 -802.04)" fill="#fff"/>
    <path id="Path_90031" data-name="Path 90031" d="M605.11,1084.4H562.223a.515.515,0,0,1-.488-.681l13.626-40.11a.512.512,0,0,1,.056-.115,4.973,4.973,0,0,1,4.2-2.251h36.255a2.792,2.792,0,0,1,2.336,1.213,2.7,2.7,0,0,1,.312,2.491l-.186.479c-.151.387-.307.787-.437,1.182L605.6,1084.042a.515.515,0,0,1-.49.354m-42.168-1.031h41.795l12.176-37.082c.138-.422.3-.835.456-1.236l.183-.471a1.669,1.669,0,0,0-.2-1.54,1.775,1.775,0,0,0-1.488-.767H579.612a3.947,3.947,0,0,0-3.3,1.729Z" transform="translate(-431.746 -800.328)"/>
    <path id="Path_90032" data-name="Path 90032" d="M679.989,1124.291a2.816,2.816,0,1,0,3.595-2.265,3.022,3.022,0,0,0-3.595,2.265" transform="translate(-522.54 -862.343)"/>
    <path id="Path_90033" data-name="Path 90033" d="M1512.117,1566.654h-70.229a6.657,6.657,0,0,1-6.52-8l10.655-51.794a9.369,9.369,0,0,1,9.177-7.481h60.24Z" transform="translate(-1103.16 -1152.469)" fill="#fff"/>
    <path id="Path_90034" data-name="Path 90034" d="M1510.408,1565.458h-70.229a7.173,7.173,0,0,1-7.025-8.618l10.655-51.794a9.92,9.92,0,0,1,9.682-7.893h60.24a.515.515,0,0,1,.514.541l-3.321,67.274a.515.515,0,0,1-.515.49m-56.918-67.274a8.886,8.886,0,0,0-8.672,7.07l-10.655,51.795a6.142,6.142,0,0,0,6.016,7.379h69.739l3.271-66.243Z" transform="translate(-1101.451 -1150.757)"/>
    <path id="Path_90035" data-name="Path 90035" d="M1739.013,1566.654h-13.629a6.657,6.657,0,0,1-6.521-8l11.736-57.048a2.79,2.79,0,0,1,2.733-2.228h3.505a2.79,2.79,0,0,1,2.781,2.563l4.8,58.847a5.423,5.423,0,0,1-5.405,5.864" transform="translate(-1321.063 -1152.469)" fill="#fff"/>
    <path id="Path_90036" data-name="Path 90036" d="M1737.3,1565.458h-13.629a7.173,7.173,0,0,1-7.025-8.618l11.735-57.048a3.318,3.318,0,0,1,3.238-2.639h3.5a3.323,3.323,0,0,1,3.294,3.036l4.8,58.847a5.938,5.938,0,0,1-5.919,6.421m-5.681-67.274A2.282,2.282,0,0,0,1729.4,1500l-11.736,57.048a6.142,6.142,0,0,0,6.016,7.379H1737.3a4.908,4.908,0,0,0,4.892-5.307l-4.8-58.847a2.287,2.287,0,0,0-2.267-2.09Z" transform="translate(-1319.355 -1150.757)"/>
    <path id="Path_90037" data-name="Path 90037" d="M1541.807,1538.727h-54.988a.515.515,0,0,1,0-1.03h54.988a2.991,2.991,0,0,0,2.921-2.309l4.847-20.462a.515.515,0,1,1,1,.237l-4.847,20.462a4.018,4.018,0,0,1-3.923,3.1" transform="translate(-1142.418 -1164.112)"/>
    <path id="Path_90038" data-name="Path 90038" d="M1579.676,1616.89l-1.54,6.213a2.331,2.331,0,0,1-2.268,1.794h-10.891a1.793,1.793,0,0,1-1.727-2.273l1.6-5.734Z" transform="translate(-1201.51 -1242.791)" fill="#fff"/>
    <path id="Path_90039" data-name="Path 90039" d="M1574.155,1623.7h-10.891a2.308,2.308,0,0,1-2.223-2.927l1.595-5.734a.515.515,0,0,1,.5-.377h14.831a.515.515,0,0,1,.5.639l-1.54,6.213a2.835,2.835,0,0,1-2.768,2.185m-10.631-8.007-1.49,5.357a1.277,1.277,0,0,0,1.23,1.619h10.891a1.809,1.809,0,0,0,1.767-1.4l1.383-5.579Z" transform="translate(-1199.797 -1241.079)"/>
    <path id="Path_90040" data-name="Path 90040" d="M1508.729,1766.458h-58.417a.515.515,0,1,1,0-1.03h58.417a.515.515,0,0,1,0,1.03" transform="translate(-1114.358 -1356.962)"/>
    <path id="Path_90041" data-name="Path 90041" d="M1558.959,1489.22h-4.56a2.23,2.23,0,0,0-2.23,2.231h9.021a2.23,2.23,0,0,0-2.23-2.231" transform="translate(-1193.044 -1144.659)" fill="#fff"/>
    <path id="Path_90042" data-name="Path 90042" d="M1559.477,1490.254h-9.021a.515.515,0,0,1-.515-.515,2.749,2.749,0,0,1,2.746-2.746h4.56a2.749,2.749,0,0,1,2.746,2.746.515.515,0,0,1-.515.515m-8.427-1.031h7.832a1.718,1.718,0,0,0-1.636-1.2h-4.56a1.718,1.718,0,0,0-1.636,1.2" transform="translate(-1191.332 -1142.948)"/>
    <path id="Path_90043" data-name="Path 90043" d="M1716.91,1489.22h-4.56a2.231,2.231,0,0,0-2.231,2.231h9.021a2.23,2.23,0,0,0-2.231-2.231" transform="translate(-1314.45 -1144.659)"/>
    <path id="Path_90044" data-name="Path 90044" d="M1717.427,1490.254h-9.021a.516.516,0,0,1-.516-.515,2.749,2.749,0,0,1,2.746-2.746h4.56a2.749,2.749,0,0,1,2.746,2.746.515.515,0,0,1-.515.515m-8.427-1.031h7.832a1.718,1.718,0,0,0-1.636-1.2h-4.56a1.718,1.718,0,0,0-1.636,1.2" transform="translate(-1312.737 -1142.948)" fill="#fff"/>
    <path id="Path_90045" data-name="Path 90045" d="M1606.249,1455.582l.735-4.365a4.614,4.614,0,0,0-4.661-5.6h-27.343a6.906,6.906,0,0,0-6.548,5.6l-.735,4.365h2.093l.572-3.4a5.375,5.375,0,0,1,5.1-4.362H1601.1a3.591,3.591,0,0,1,3.628,4.362l-.572,3.4Z" transform="translate(-1204.979 -1111.142)" fill="#fff"/>
    <path id="Path_90046" data-name="Path 90046" d="M1604.537,1454.385h-2.093a.515.515,0,0,1-.508-.6l.572-3.4a3.246,3.246,0,0,0-.662-2.688,3.144,3.144,0,0,0-2.458-1.074h-25.643a4.848,4.848,0,0,0-4.588,3.932l-.572,3.4a.516.516,0,0,1-.508.43h-2.093a.515.515,0,0,1-.508-.6l.735-4.364a7.449,7.449,0,0,1,7.056-6.034h27.343a5.2,5.2,0,0,1,4.056,1.8,5.328,5.328,0,0,1,1.113,4.409l-.735,4.364a.515.515,0,0,1-.508.43m-1.484-1.031h1.047l.662-3.935a4.315,4.315,0,0,0-.883-3.573,4.185,4.185,0,0,0-3.27-1.431h-27.343a6.381,6.381,0,0,0-6.04,5.175l-.634,3.763h1.048l.5-2.967a5.916,5.916,0,0,1,5.6-4.792h25.643a4.158,4.158,0,0,1,3.245,1.439,4.261,4.261,0,0,1,.891,3.524Z" transform="translate(-1203.266 -1109.43)" fill="#004290"/>
    <path id="Path_90047" data-name="Path 90047" d="M1623.633,1437.8h-24.019a2.16,2.16,0,0,0-2.048,1.753l-.353,2.1a1.443,1.443,0,0,0,1.458,1.753h24.019a2.16,2.16,0,0,0,2.048-1.753l.353-2.1a1.443,1.443,0,0,0-1.458-1.753" transform="translate(-1227.647 -1105.138)" fill="#004290"/>
    <path id="Path_90048" data-name="Path 90048" d="M1620.976,1442.209h-24.019a1.973,1.973,0,0,1-1.539-.687,2.013,2.013,0,0,1-.427-1.666l.353-2.1a2.661,2.661,0,0,1,2.556-2.182h24.019a1.973,1.973,0,0,1,1.539.687,2.014,2.014,0,0,1,.427,1.666l-.353,2.1a2.661,2.661,0,0,1-2.556,2.182m-23.075-5.6a1.651,1.651,0,0,0-1.54,1.323l-.353,2.1a1,1,0,0,0,.2.83.961.961,0,0,0,.752.322h24.019a1.651,1.651,0,0,0,1.54-1.323l.353-2.1a1,1,0,0,0-.2-.83.96.96,0,0,0-.752-.322Z" transform="translate(-1225.933 -1103.426)"/>
    <path id="Path_90049" data-name="Path 90049" d="M1745.239,1573.61a.516.516,0,0,1-.256-.963l9.155-5.216v-52.387a.515.515,0,1,1,1.03,0v52.687a.516.516,0,0,1-.26.448l-9.415,5.364a.513.513,0,0,1-.254.068" transform="translate(-1341.047 -1164.113)"/>
  </g>
</svg>
