<svg xmlns="http://www.w3.org/2000/svg" width="67" height="67" viewBox="0 0 67 67">
  <g id="shield-lock-black-icon" transform="translate(-0.001)">
    <path id="Path_90073" data-name="Path 90073" d="M33.385,0C45.878,7.205,57.164,10.614,66.85,9.808,68.542,40.941,55.906,59.327,33.515,67,11.891,59.818-.9,42.223.05,9.336,11.42,9.878,22.576,7.641,33.385,0ZM24.843,30.811H25.7V28.995a7.13,7.13,0,0,1,2.275-5.177,8.093,8.093,0,0,1,11.043,0A7.13,7.13,0,0,1,41.3,28.995v1.816h.862a1.223,1.223,0,0,1,1.272,1.158V44.2a1.223,1.223,0,0,1-1.272,1.158H24.843A1.222,1.222,0,0,1,23.571,44.2V31.968a1.222,1.222,0,0,1,1.272-1.158Zm7.614,8.058L31.084,42.14h4.833l-1.272-3.316A2.263,2.263,0,0,0,36.005,36.8,2.515,2.515,0,0,0,31,36.8a2.278,2.278,0,0,0,1.46,2.071Zm-4.343-8.058H38.889V28.995a5.036,5.036,0,0,0-1.6-3.661,5.538,5.538,0,0,0-7.58,0,5.034,5.034,0,0,0-1.6,3.661v1.816Z" fill="#004290" fill-rule="evenodd"/>
  </g>
</svg>
