<svg xmlns="http://www.w3.org/2000/svg" width="21.007" height="21.001" viewBox="0 0 21.007 21.001">
  <path id="package-distribute-icon" d="M16.042,18.137a2,2,0,0,1-1.436-.613,2.141,2.141,0,0,1-.311-2.547l-.725-.635a3.068,3.068,0,0,0,.556-.488l.642.562a1.987,1.987,0,0,1,2.71.149,2.136,2.136,0,0,1,0,2.958,2,2,0,0,1-1.436.613ZM9.193,8.011h1.775L11,10.254l-.952-.6-.895.584.043-2.228ZM7.179,6.761h5.787A.777.777,0,0,1,13.525,7a.824.824,0,0,1,.232.575v4.962a.825.825,0,0,1-.232.573h0a.778.778,0,0,1-.557.239H7.179a.777.777,0,0,1-.558-.239L6.6,13.091a.823.823,0,0,1-.213-.555V7.575A.824.824,0,0,1,6.621,7a.777.777,0,0,1,.558-.239Zm5.787.593H7.179a.211.211,0,0,0-.151.066.224.224,0,0,0-.063.156v4.962a.227.227,0,0,0,.053.146l.01.01a.211.211,0,0,0,.152.065h5.787a.21.21,0,0,0,.151-.064h0a.223.223,0,0,0,.063-.155V7.575a.224.224,0,0,0-.063-.156A.211.211,0,0,0,12.966,7.354ZM8.078,15.248l-.383.915c.027.021.054.043.081.065a2.142,2.142,0,0,1,.744,1.439,2.165,2.165,0,0,1-.461,1.557,2.044,2.044,0,0,1-1.4.766,2.019,2.019,0,0,1-1.511-.475,2.142,2.142,0,0,1-.744-1.439,2.165,2.165,0,0,1,.461-1.557,2.044,2.044,0,0,1,1.4-.766,2,2,0,0,1,.785.077l.309-.74a4.412,4.412,0,0,0,.72.158Zm7.145-7.4.707-.275a2.187,2.187,0,0,1-.055-.7.377.377,0,0,1,.006-.067,2.14,2.14,0,0,1,.743-1.4,2.019,2.019,0,0,1,1.514-.471,2.045,2.045,0,0,1,1.4.769,2.166,2.166,0,0,1,.457,1.559A2.142,2.142,0,0,1,19.243,8.7a2.019,2.019,0,0,1-1.482.474.353.353,0,0,1-.065-.007A2.045,2.045,0,0,1,16.334,8.4q-.058-.073-.109-.15l-.719.28a3.667,3.667,0,0,0-.284-.683ZM11.447,4.179v0l-.154,1.066q-.354-.073-.712-.116L10.73,4.1a2.012,2.012,0,0,1-.854-.525A2.135,2.135,0,0,1,9.855.636L9.876.613a1.987,1.987,0,0,1,2.85-.021l.022.021a2.135,2.135,0,0,1,0,2.957v0a2,2,0,0,1-1.3.608ZM3.936,11.515l1.156-.232q.052.387.116.733l-1.146.23A2.133,2.133,0,0,1,3.8,13.258a.368.368,0,0,1-.029.051,2.031,2.031,0,0,1-1.218.95,1.97,1.97,0,0,1-1.507-.191.362.362,0,0,1-.065-.039,2.08,2.08,0,0,1-.914-1.249,2.14,2.14,0,0,1,.2-1.587,2.032,2.032,0,0,1,1.232-.974,1.972,1.972,0,0,1,1.533.205l.007,0a2.068,2.068,0,0,1,.89,1.088ZM6.093,6.461l-.821-.7q-.07.054-.144.1a1.907,1.907,0,0,1-1.479.259,1.959,1.959,0,0,1-1.225-.894A2.065,2.065,0,0,1,2.173,3.7,2.014,2.014,0,0,1,3.042,2.44,1.907,1.907,0,0,1,4.52,2.18a1.959,1.959,0,0,1,1.225.894,2.073,2.073,0,0,1,.011,2.133l.887.761A3.905,3.905,0,0,0,6.093,6.461ZM3.808,5.4a1.208,1.208,0,0,0,.937-.163,1.273,1.273,0,0,0,.55-.8,1.309,1.309,0,0,0-.159-.965A1.238,1.238,0,0,0,4.362,2.9a1.208,1.208,0,0,0-.937.163,1.273,1.273,0,0,0-.55.8,1.309,1.309,0,0,0,.159.965A1.238,1.238,0,0,0,3.808,5.4ZM1.377,13.408a1.274,1.274,0,0,0,.993.133,1.31,1.31,0,0,0,.783-.608.35.35,0,0,1,.023-.041,1.381,1.381,0,0,0,.119-1,1.342,1.342,0,0,0-.589-.807.359.359,0,0,1-.04-.024,1.272,1.272,0,0,0-.974-.123,1.311,1.311,0,0,0-.8.628,1.38,1.38,0,0,0-.13,1.023,1.34,1.34,0,0,0,.609.819h0ZM10.369,1.156a1.379,1.379,0,0,0,.017,1.889,1.284,1.284,0,0,0,1.851,0,1.379,1.379,0,0,0,0-1.907l-.016-.018a1.283,1.283,0,0,0-1.835.018Zm6.524,6.777a1.33,1.33,0,0,0,.906.5h0a1.316,1.316,0,0,0,.986-.308,1.394,1.394,0,0,0,.487-.935,1.412,1.412,0,0,0-.3-1.016,1.331,1.331,0,0,0-.907-.5,1.316,1.316,0,0,0-.986.308,1.393,1.393,0,0,0-.487.934h0a1.411,1.411,0,0,0,.3,1.016ZM5.607,18.942a1.32,1.32,0,0,0,1.9-.189,1.413,1.413,0,0,0,.3-1.017,1.394,1.394,0,0,0-.484-.936,1.318,1.318,0,0,0-.987-.31,1.331,1.331,0,0,0-.909.5,1.413,1.413,0,0,0-.3,1.017A1.394,1.394,0,0,0,5.607,18.942ZM15.117,17a1.282,1.282,0,0,0,1.851,0,1.377,1.377,0,0,0,0-1.906,1.282,1.282,0,0,0-1.851,0,1.377,1.377,0,0,0,0,1.906Z" transform="translate(0.506 0.5)" fill="#fff" stroke="#fff" stroke-width="1"/>
</svg>
