<svg xmlns="http://www.w3.org/2000/svg" width="40" height="40" viewBox="0 0 40 40">
  <g id="business-communication-icon" transform="translate(0 -0.005)">
    <path id="Path_90070" data-name="Path 90070" d="M8.469,19.556a.925.925,0,0,1-1.224.423.9.9,0,0,1-.43-1.2,14.8,14.8,0,0,1,1.767-2.79,15.07,15.07,0,0,1,2.346-2.341.925.925,0,0,1,1.29.13.891.891,0,0,1-.132,1.27,13.051,13.051,0,0,0-3.616,4.512ZM31.346,30.368l1.065,3.086.536-1.833-.261-.283a.419.419,0,0,1-.079-.446c.142-.277.437-.225.711-.225s.645-.052.734.3a.462.462,0,0,1-.093.371l-.261.283.536,1.833.966-3.086c.7.619,2.759.742,3.527,1.162a2.021,2.021,0,0,1,.638.531,2.533,2.533,0,0,1,.476,1.377L40,35.118a.7.7,0,0,1-.738.677H27.28a.7.7,0,0,1-.738-.677l.159-1.677a2.533,2.533,0,0,1,.476-1.377,2.021,2.021,0,0,1,.638-.531c.771-.423,2.832-.547,3.53-1.166Zm-26.545,0,1.065,3.086L6.4,31.621l-.261-.283a.419.419,0,0,1-.079-.446c.142-.277.437-.225.711-.225s.645-.052.734.3a.462.462,0,0,1-.093.371l-.261.283.536,1.833.966-3.086c.7.619,2.759.742,3.527,1.162a2.021,2.021,0,0,1,.638.531,2.533,2.533,0,0,1,.476,1.377l.159,1.677a.7.7,0,0,1-.738.677H.738A.7.7,0,0,1,0,35.118l.159-1.677a2.533,2.533,0,0,1,.476-1.377,2.021,2.021,0,0,1,.638-.531c.768-.423,2.832-.547,3.527-1.166Zm-.506-4.411a.546.546,0,0,0,.251.007l-.152-1.185a1.6,1.6,0,0,1,.354-.687,1.092,1.092,0,0,1,.619-.329c.328-.023.427.212.751.417a5.273,5.273,0,0,0,3.06.85l-.152.752a.17.17,0,0,0-.03.114c0,.007,0,.016,0,.023l-.02.1c.033,0,.066,0,.1,0a.176.176,0,0,0,.109.026c.212-.02.344,0,.377.072.05.094.007.29-.132.6l-.672,1.087a5.2,5.2,0,0,1-.824,1.107,1.7,1.7,0,0,1-1.208.472,1.642,1.642,0,0,1-1.141-.453,4.97,4.97,0,0,1-.8-1.035l-.6-.934h0l0,0a1.414,1.414,0,0,1-.285-.677.339.339,0,0,1,.026-.156.2.2,0,0,1,.086-.094.531.531,0,0,1,.281-.081Zm5.3-.221.036-1.517a2.274,2.274,0,0,0-.582-1.439,3.431,3.431,0,0,0-3.477-.68,2.768,2.768,0,0,0-.543.26A2.242,2.242,0,0,0,4.02,23.622,2.208,2.208,0,0,0,3.947,24a14.769,14.769,0,0,0,.026,1.673.677.677,0,0,0-.146.075.55.55,0,0,0-.205.238.659.659,0,0,0-.06.306,1.674,1.674,0,0,0,.341.856l.6.931a5.24,5.24,0,0,0,.86,1.1,1.972,1.972,0,0,0,1.373.54,2.03,2.03,0,0,0,1.442-.563,5.394,5.394,0,0,0,.883-1.179l.678-1.1.01-.02h0a1.106,1.106,0,0,0,.129-.9.455.455,0,0,0-.285-.234Zm8.4-21.679a.546.546,0,0,0,.251.007l-.152-1.185a1.529,1.529,0,0,1,.354-.687,1.092,1.092,0,0,1,.619-.329c.328-.023.427.212.751.417a5.273,5.273,0,0,0,3.06.85l-.152.752a.17.17,0,0,0-.03.114c0,.007,0,.016,0,.023l-.02.1c.033,0,.066,0,.1,0a.176.176,0,0,0,.109.026c.212-.02.344,0,.377.068.05.094.007.29-.132.6L22.45,5.909a5.2,5.2,0,0,1-.824,1.107,1.7,1.7,0,0,1-1.208.472,1.642,1.642,0,0,1-1.141-.453A4.97,4.97,0,0,1,18.477,6l-.6-.934h0l0,0a1.414,1.414,0,0,1-.285-.677.339.339,0,0,1,.026-.156.2.2,0,0,1,.086-.094.562.562,0,0,1,.281-.078Zm.506,4.411,1.065,3.086.536-1.833-.261-.283a.419.419,0,0,1-.079-.446c.142-.277.437-.225.711-.225s.645-.052.734.3a.462.462,0,0,1-.093.371l-.261.283.536,1.833.969-3.09c.7.619,2.759.742,3.527,1.162a2.021,2.021,0,0,1,.638.531,2.533,2.533,0,0,1,.476,1.377l.159,1.677a.7.7,0,0,1-.738.677H14.431a.7.7,0,0,1-.738-.677l.159-1.677a2.533,2.533,0,0,1,.476-1.377,2.021,2.021,0,0,1,.638-.531c.768-.42,2.832-.544,3.527-1.162Zm4.79-4.629.036-1.517A2.274,2.274,0,0,0,22.738.882,3.431,3.431,0,0,0,19.261.2a2.861,2.861,0,0,0-.543.26,2.249,2.249,0,0,0-1.006,1.26,2.208,2.208,0,0,0-.073.381,14.768,14.768,0,0,0,.026,1.673.678.678,0,0,0-.146.075.55.55,0,0,0-.205.238.659.659,0,0,0-.06.306,1.674,1.674,0,0,0,.341.856l.6.931a5.24,5.24,0,0,0,.86,1.1,1.972,1.972,0,0,0,1.373.54,2.03,2.03,0,0,0,1.442-.563,5.473,5.473,0,0,0,.883-1.179l.678-1.1.01-.02h0a1.106,1.106,0,0,0,.129-.9.44.44,0,0,0-.285-.231Zm7.553,22.118a.56.56,0,0,0-.275.075.26.26,0,0,0-.086.094.324.324,0,0,0-.026.156,1.37,1.37,0,0,0,.285.677l0,0h0l.6.934a4.97,4.97,0,0,0,.8,1.035,1.65,1.65,0,0,0,1.141.453,1.7,1.7,0,0,0,1.208-.472,5.119,5.119,0,0,0,.824-1.107l.672-1.087c.139-.313.182-.508.132-.6-.036-.072-.165-.088-.377-.072a.182.182,0,0,1-.109-.026.913.913,0,0,1-.1,0l.02-.1a.048.048,0,0,1,0-.023.17.17,0,0,1,.03-.114l.152-.752a5.3,5.3,0,0,1-3.06-.85c-.328-.205-.423-.44-.751-.417a1.112,1.112,0,0,0-.619.329,1.529,1.529,0,0,0-.354.687l.152,1.185a.532.532,0,0,1-.258,0Zm5.3-.221a.44.44,0,0,1,.285.231,1.1,1.1,0,0,1-.129.9h0l-.01.02-.678,1.1a5.554,5.554,0,0,1-.883,1.179,2.016,2.016,0,0,1-1.442.563,1.972,1.972,0,0,1-1.373-.54,5.325,5.325,0,0,1-.86-1.1l-.6-.931a1.736,1.736,0,0,1-.341-.856.651.651,0,0,1,.06-.306.594.594,0,0,1,.205-.238.866.866,0,0,1,.146-.075A14.024,14.024,0,0,1,30.489,24a2.208,2.208,0,0,1,.073-.381,2.266,2.266,0,0,1,1.006-1.263,2.768,2.768,0,0,1,.543-.26,3.433,3.433,0,0,1,3.477.68,2.248,2.248,0,0,1,.582,1.439l-.036,1.52ZM28.947,15.2a.892.892,0,0,1-.112-1.27.927.927,0,0,1,1.29-.111c.185.153.331.277.44.374.132.117.271.251.423.394a15.009,15.009,0,0,1,1.525,1.719,15.2,15.2,0,0,1,1.241,1.931.9.9,0,0,1-.384,1.221.928.928,0,0,1-1.241-.378,12.593,12.593,0,0,0-1.088-1.69,13.183,13.183,0,0,0-1.34-1.514c-.109-.107-.235-.221-.371-.345-.162-.143-.291-.254-.384-.332Zm-4.3,22.32a.921.921,0,0,1,1.161.57.9.9,0,0,1-.579,1.143,14.688,14.688,0,0,1-2.369.576,15.38,15.38,0,0,1-7.341-.606.9.9,0,0,1-.572-1.149.924.924,0,0,1,1.168-.563,13.511,13.511,0,0,0,2.111.527,13.707,13.707,0,0,0,2.19.176,13.521,13.521,0,0,0,2.147-.169,12.96,12.96,0,0,0,2.084-.5Z" transform="translate(0 0)" fill="#004290"/>
  </g>
</svg>
