<svg xmlns="http://www.w3.org/2000/svg" width="67" height="67" viewBox="0 0 67 67">
  <g id="heart-pulse-icon" transform="translate(0.001 -0.005)">
    <path id="Path_90074" data-name="Path 90074" d="M33.167,10.726C37.534,5.517,40.593,1.013,47.321.133,59.954-1.526,71.573,13.272,65.194,27.839a46.877,46.877,0,0,1-5.583,8.934v-.381H43.264l-.578.686L40.075,40.16,34.688,28.326,32.9,24.4l-1.712,3.974L26.307,39.7l-4.836-8.029-1.7-2.82-1.576,2.92-2.268,4.192H5.97C2.584,30.64.207,24.894.01,18.687-.344,7.332,7.486.058,16.493.2c8.048.119,11.434,4.7,16.674,10.531ZM56.328,40.884l-.736.88c-4.487,5.315-9.455,10.525-12.933,14.474L33.172,67.005l-7.841-8.634c-4.776-5.265-11.079-11.217-16.2-17.917H18.1l.578-1.073,1.265-2.346,5.033,8.354,1.892,3.144,1.472-3.425,4.64-10.78,4.847,10.662,1.254,2.757,1.892-2.233,3.926-4.629Z" transform="translate(0 0)" fill="#004290" fill-rule="evenodd"/>
  </g>
</svg>
