<svg id="grain-wheat-icon" xmlns="http://www.w3.org/2000/svg" width="67" height="67" viewBox="0 0 67 67">
  <path id="Path_90075" data-name="Path 90075" d="M51.417,19.263a15.446,15.446,0,0,1-1.118-3.25,7.159,7.159,0,0,1,0-2.85q-.573,1.119-1.1,2.256c-1.461,3.141-3.026,7-.916,10.259a2.666,2.666,0,0,0,2.639,1.431,2.5,2.5,0,0,0,1.925-2.516c.191-1.977-.692-3.638-1.429-5.33ZM5.8,18.76A113.148,113.148,0,0,1,.4,5.8a98.1,98.1,0,0,0,3.566,12.66l1.827.3ZM12.655,15.9A119.506,119.506,0,0,0,10.016,1.777a72.935,72.935,0,0,1,3.915,12.642L12.655,15.9ZM4.149,0C6,7.64,5.18,8.531,5.91,14.679a7.54,7.54,0,0,0,.731,2.874,3.113,3.113,0,0,0,1.172,1.158c2.214,1.273,3.528-.152,4.035-2.486a5.392,5.392,0,0,0-.523-2.534,13.458,13.458,0,0,0-2.481-3.614C6.041,7.07,5.605,4.093,4.149,0ZM23.342,67A23.053,23.053,0,0,0,19.6,57.978l4.575-1.3a65.237,65.237,0,0,0,.7,8.695L23.342,67ZM13.986,51.545a11.649,11.649,0,0,1-3.053-.758,5.9,5.9,0,0,1-2.143-1.57c.349.764.709,1.516,1.085,2.268,1.554,3.086,3.588,6.658,7.2,6.5A2.71,2.71,0,0,0,19.6,56.322a2.759,2.759,0,0,0-.829-3.171c-1.374-1.267-3.108-1.364-4.782-1.607Zm-2.323-8.192A11.844,11.844,0,0,1,8.631,42.5a5.959,5.959,0,0,1-2.1-1.637c.327.77.671,1.54,1.025,2.3,1.472,3.135,3.408,6.773,7.023,6.736a2.689,2.689,0,0,0,2.568-1.583,2.763,2.763,0,0,0-.742-3.2c-1.347-1.31-3.075-1.461-4.744-1.764ZM9.58,35.828A12.112,12.112,0,0,1,6.587,34.8a6.05,6.05,0,0,1-2.023-1.752c.294.788.6,1.576.921,2.353,1.325,3.214,3.1,6.961,6.707,7.118a2.665,2.665,0,0,0,2.639-1.431,2.789,2.789,0,0,0-.594-3.238c-1.281-1.382-3-1.631-4.656-2.025ZM7.094,27.916a11.876,11.876,0,0,1-3.026-.891,5.9,5.9,0,0,1-2.083-1.661q.483,1.164,1,2.31c1.445,3.153,3.342,6.815,6.957,6.815a2.685,2.685,0,0,0,2.584-1.552,2.783,2.783,0,0,0-.714-3.208c-1.325-1.322-3.053-1.492-4.722-1.813ZM4.88,20.191A12.146,12.146,0,0,1,1.941,19,6.136,6.136,0,0,1,0,17.141c.256.806.529,1.607.812,2.4C2,22.829,3.588,26.661,7.192,27.024a2.626,2.626,0,0,0,2.7-1.285,2.793,2.793,0,0,0-.453-3.262c-1.216-1.455-2.923-1.8-4.558-2.286ZM24.264,47.264a14.4,14.4,0,0,0,1.9-2.765,7.075,7.075,0,0,0,.731-2.735c.174.831.333,1.667.48,2.51.6,3.474,1.112,7.664-1.745,10.126a2.523,2.523,0,0,1-2.9.534,2.694,2.694,0,0,1-1.2-3.02c.327-1.952,1.6-3.262,2.737-4.651ZM21.75,39.436a14.4,14.4,0,0,0,1.9-2.765,7.075,7.075,0,0,0,.731-2.735c.174.831.333,1.667.48,2.51.6,3.474,1.112,7.664-1.745,10.126a2.532,2.532,0,0,1-2.9.534,2.694,2.694,0,0,1-1.2-3.02c.327-1.952,1.592-3.262,2.737-4.651Zm-2.519-7.828a14.4,14.4,0,0,0,1.9-2.765,7.075,7.075,0,0,0,.731-2.735c.174.831.333,1.667.48,2.51.6,3.474,1.112,7.664-1.745,10.126a2.532,2.532,0,0,1-2.9.534,2.694,2.694,0,0,1-1.2-3.02c.327-1.952,1.6-3.262,2.737-4.651Zm-2.394-7.864a14.4,14.4,0,0,0,1.9-2.765,7.075,7.075,0,0,0,.731-2.735c.174.831.333,1.667.48,2.51.6,3.474,1.112,7.664-1.745,10.126a2.532,2.532,0,0,1-2.9.534,2.694,2.694,0,0,1-1.2-3.02c.327-1.952,1.6-3.262,2.737-4.651Zm-2.6-7.852a14.428,14.428,0,0,0,1.772-2.868,7.127,7.127,0,0,0,.605-2.771c.213.825.409,1.649.594,2.48.752,3.438,1.456,7.591-1.287,10.211a2.548,2.548,0,0,1-2.868.7,2.65,2.65,0,0,1-1.336-2.947c.229-1.971,1.439-3.347,2.519-4.8Zm44.776,8.367A106.339,106.339,0,0,0,67,13.079a92.456,92.456,0,0,1-6.15,11.363l-1.837-.182Zm-6.063-4.572A113.844,113.844,0,0,1,58.511,6.651a68.986,68.986,0,0,0-6.488,11.26l.927,1.777ZM64.59,6.464c-3.413,6.943-2.808,8.022-4.825,13.806a7.207,7.207,0,0,1-1.319,2.6,2.861,2.861,0,0,1-1.385.819c-2.426.661-3.4-1.073-3.4-3.468A5.212,5.212,0,0,1,54.71,17.9a12.467,12.467,0,0,1,3.179-2.862c3.359-2.2,4.417-4.984,6.7-8.574ZM31.728,66.539a21.555,21.555,0,0,1,5.556-7.785l-4.171-2.468a63.806,63.806,0,0,1-2.524,8.264l1.14,1.989ZM44.1,53.97a11.532,11.532,0,0,0,3.13.067,5.5,5.5,0,0,0,2.415-.964c-.5.649-1.014,1.285-1.538,1.916-2.165,2.589-4.9,5.53-8.375,4.432a2.9,2.9,0,0,1-2.1-2.28,2.647,2.647,0,0,1,1.478-2.868c1.608-.867,3.31-.5,4.989-.3Zm4-7.349a11.747,11.747,0,0,0,3.13-.036,5.564,5.564,0,0,0,2.388-1.043c-.485.667-.976,1.322-1.483,1.965-2.094,2.662-4.744,5.693-8.25,4.705A2.865,2.865,0,0,1,41.722,50a2.673,2.673,0,0,1,1.4-2.916c1.576-.916,3.282-.606,4.973-.467Zm3.615-6.761a11.706,11.706,0,0,0,3.124-.212,5.621,5.621,0,0,0,2.339-1.176c-.453.691-.916,1.376-1.4,2.049-1.974,2.777-4.482,5.948-8.026,5.16A2.827,2.827,0,0,1,45.5,43.6a2.689,2.689,0,0,1,1.265-2.989c1.538-1.007,3.261-.8,4.951-.746Zm4.095-7.04a11.741,11.741,0,0,0,3.13-.073,5.552,5.552,0,0,0,2.377-1.067c-.48.667-.965,1.334-1.467,1.983-2.072,2.686-4.695,5.748-8.206,4.8a2.866,2.866,0,0,1-2.181-2.183,2.665,2.665,0,0,1,1.374-2.929c1.57-.946,3.282-.661,4.973-.534ZM59.6,25.89a11.677,11.677,0,0,0,3.113-.382,5.686,5.686,0,0,0,2.279-1.3c-.42.715-.851,1.425-1.3,2.122-1.843,2.88-4.209,6.191-7.786,5.6a2.8,2.8,0,0,1-2.35-1.958,2.724,2.724,0,0,1,1.129-3.056c1.489-1.091,3.217-.982,4.913-1.025ZM35.021,47.118a15.409,15.409,0,0,1-1.26-3.183,7.269,7.269,0,0,1-.131-2.85c-.344.764-.682,1.534-1,2.316-1.319,3.22-2.7,7.155-.453,10.3a2.625,2.625,0,0,0,2.7,1.279,2.539,2.539,0,0,0,1.81-2.619c.1-1.989-.856-3.6-1.668-5.245Zm4.1-6.949a15.409,15.409,0,0,1-1.26-3.183,7.269,7.269,0,0,1-.131-2.85c-.344.764-.682,1.534-1,2.316-1.319,3.22-2.7,7.155-.453,10.3a2.625,2.625,0,0,0,2.7,1.279,2.539,2.539,0,0,0,1.81-2.619c.1-1.989-.851-3.6-1.668-5.245Zm4.106-6.949a15.409,15.409,0,0,1-1.26-3.183,7.269,7.269,0,0,1-.131-2.85c-.344.764-.682,1.534-1,2.316-1.319,3.22-2.7,7.155-.453,10.3a2.625,2.625,0,0,0,2.7,1.279,2.539,2.539,0,0,0,1.81-2.619c.1-1.989-.856-3.6-1.668-5.245Zm4-7.015a15.409,15.409,0,0,1-1.26-3.183,7.263,7.263,0,0,1-.131-2.85c-.344.764-.682,1.534-1,2.316-1.319,3.22-2.7,7.155-.453,10.3a2.625,2.625,0,0,0,2.7,1.279,2.539,2.539,0,0,0,1.81-2.619c.1-1.989-.856-3.6-1.668-5.245Z" fill="#004290" fill-rule="evenodd"/>
</svg>
