<svg xmlns="http://www.w3.org/2000/svg" width="67" height="67" viewBox="0 0 67 67">
  <g id="world-tour-icon" transform="translate(-0.002)">
    <path id="Path_90076" data-name="Path 90076" d="M60.5,41.581a2.026,2.026,0,0,1,.262.022,27.092,27.092,0,0,0,1.518-2.923c.011-.022.017-.038.028-.06a23.907,23.907,0,0,0,1.552-4.842,24.908,24.908,0,0,0,.5-3.991H56.182a24.607,24.607,0,0,1-3.7,11.788H60.5v.005ZM6.289,60.8c.006-1.374.819-2.715,2.138-4.215L.774,51.946c-.483-.2-.472-.485-.193-.818L2.2,49.8a1.181,1.181,0,0,1,.944-.158l9.45,1.532,6.146-6.521L.37,32.726c-.466-.262-.506-.556-.028-.9L2.991,29.8l23.96,6.456L34.03,29c2.377-1.968,4.679-2.852,6.453-2.432a1.8,1.8,0,0,1,1.62,1.39c.586,1.723-.324,4.035-2.473,6.418l-7.562,6.783L38.8,64.132l-2.115,2.541c-.358.458-.665.42-.938-.022L23.307,49.029l-6.8,5.894,1.6,9.062a1.076,1.076,0,0,1-.165.905l-1.382,1.554c-.347.267-.642.278-.853-.185L10.866,58.92c-1.575,1.27-2.974,2.05-4.406,2.05-.142-.005-.171-.049-.171-.169ZM59.076,44.083H50.831a51.835,51.835,0,0,1-8.881,9.3l-.785-2.672a50.837,50.837,0,0,0,6.453-6.63h-8.4l-.432-1.472,1.149-1.031h9.507a23,23,0,0,0,4.134-11.788H48.591a9.022,9.022,0,0,0,.045-2.5h4.884A25.152,25.152,0,0,0,49.006,15.5H38.539v4.94a12.831,12.831,0,0,0-2.445.66l-.165.065v-5.66H25.462A25.131,25.131,0,0,0,20.947,27.3h6.937l-2.439,2.5H25.41l-9.285-2.5h2.217a26.487,26.487,0,0,1,4.071-11.788H13.692a28.2,28.2,0,0,0-1.507,2.9c-.011.022-.017.038-.028.06A23.907,23.907,0,0,0,10.6,23.3c-.165.791-.29,1.587-.381,2.4l-2.547-.687c.091-.742.216-1.478.364-2.2a26.714,26.714,0,0,1,1.717-5.333c.011-.022.017-.044.028-.071a29.661,29.661,0,0,1,2.752-4.864,28.2,28.2,0,0,1,3.616-4.209,28.886,28.886,0,0,1,4.389-3.468A31.553,31.553,0,0,1,25.615,2.23h.006A29.389,29.389,0,0,1,31.244.556h0a32.473,32.473,0,0,1,11.969,0A29.625,29.625,0,0,1,48.773,2.2c.023.011.051.016.074.027a31.755,31.755,0,0,1,5.072,2.639,28.608,28.608,0,0,1,4.389,3.468,27.874,27.874,0,0,1,3.616,4.209,29.472,29.472,0,0,1,2.752,4.864h0v.005a26.507,26.507,0,0,1,1.746,5.393,28.6,28.6,0,0,1,0,11.461A26.553,26.553,0,0,1,64.7,39.6a.6.6,0,0,1-.028.071,29.661,29.661,0,0,1-2.752,4.864,27.874,27.874,0,0,1-3.616,4.209,29.168,29.168,0,0,1-4.389,3.468,31.554,31.554,0,0,1-5.072,2.639h-.006a29.389,29.389,0,0,1-5.623,1.674c-.108.022-.216.038-.318.06l-.711-2.415c.171-.027.347-.06.517-.093a26.677,26.677,0,0,0,5.111-1.516h0a29.374,29.374,0,0,0,4.657-2.415,26.489,26.489,0,0,0,4-3.157l.006-.005h0a25.591,25.591,0,0,0,2.6-2.9ZM15.392,13H24.08A59.666,59.666,0,0,1,33.911,2.683q-1.083.123-2.149.327A26.8,26.8,0,0,0,26.65,4.526h0a29.374,29.374,0,0,0-4.657,2.415A26.489,26.489,0,0,0,18,10.1l-.006.005h0a26.621,26.621,0,0,0-2.6,2.9ZM40.552,2.683A59.471,59.471,0,0,1,50.382,13h8.694a26.1,26.1,0,0,0-2.6-2.9l-.006-.005h0a26.209,26.209,0,0,0-4-3.157,29.374,29.374,0,0,0-4.657-2.415L47.75,4.5A26.516,26.516,0,0,0,42.7,3.01q-1.058-.2-2.149-.327ZM60.77,15.507H52.054A26.394,26.394,0,0,1,56.125,27.3h8.233a25.571,25.571,0,0,0-.5-3.991,24.168,24.168,0,0,0-1.581-4.9h0a27.117,27.117,0,0,0-1.507-2.9ZM38.539,4.307V13h8.637a60.658,60.658,0,0,0-8.637-8.7ZM35.929,13v-8.7A60.658,60.658,0,0,0,27.292,13Z" transform="translate(0)" fill="#004290"/>
  </g>
</svg>
