<svg id="database-checkmark-icon" xmlns="http://www.w3.org/2000/svg" width="20" height="20" viewBox="0 0 20 20">
  <path id="Path_90077" data-name="Path 90077" d="M15.576,10.869a4.511,4.511,0,1,1-4.424,4.51,4.468,4.468,0,0,1,4.424-4.51Zm-2.106,5.28a.624.624,0,0,1-.016-.868.6.6,0,0,1,.851-.017l.776.752,1.8-2.4h0a.112.112,0,0,1,.02-.02c.586-.516,1.37.38.8.914l-2.212,2.8h0a.126.126,0,0,1-.015.015.593.593,0,0,1-.407.151.6.6,0,0,1-.407-.171L13.47,16.149ZM2.879,4.425a16.771,16.771,0,0,0,5.194.727,16.771,16.771,0,0,0,5.194-.727c1.157-.393,1.873-.871,1.873-1.337s-.716-.944-1.873-1.337a16.821,16.821,0,0,0-5.194-.727,16.771,16.771,0,0,0-5.194.727c-2.456.836-2.524,1.817,0,2.675ZM1.016,7.942c.091.435.786.873,1.864,1.24a16.771,16.771,0,0,0,5.194.727,16.771,16.771,0,0,0,5.194-.727c1.157-.393,1.873-.871,1.873-1.337h0v-3.2a6.288,6.288,0,0,1-1.561.752,17.805,17.805,0,0,1-5.511.783,17.748,17.748,0,0,1-5.511-.783,6.272,6.272,0,0,1-1.545-.742v3.29ZM10.3,15.356a21.82,21.82,0,0,1-2.23.111,17.748,17.748,0,0,1-5.511-.783,6.272,6.272,0,0,1-1.545-.742V17.01c.091.435.786.873,1.864,1.24a16.821,16.821,0,0,0,5.194.727,19.734,19.734,0,0,0,3.382-.277,5.386,5.386,0,0,0,.861.869A19.808,19.808,0,0,1,8.075,20a17.748,17.748,0,0,1-5.511-.783c-.749-.256-2.55-1.092-2.55-2.094v-.329Q.008,9.944,0,3.088C0,2.132.978,1.321,2.56.782A17.813,17.813,0,0,1,8.073,0a17.748,17.748,0,0,1,5.511.783c1.44.49,2.38,1.206,2.537,2.053a.5.5,0,0,1,.029.173v7.031a5.04,5.04,0,0,0-.6-.035c-.138,0-.273,0-.409.017V9.4a6.288,6.288,0,0,1-1.561.752,17.806,17.806,0,0,1-5.511.783,17.748,17.748,0,0,1-5.511-.783A6.271,6.271,0,0,1,1.019,9.41v3.068c.091.435.786.873,1.864,1.24a16.821,16.821,0,0,0,5.194.727,21.147,21.147,0,0,0,2.329-.126,5.173,5.173,0,0,0-.1,1.037Z" fill="#fff" fill-rule="evenodd"/>
</svg>
