<svg id="managed-hosting-icon" xmlns="http://www.w3.org/2000/svg" width="40" height="40" viewBox="0 0 40 40">
  <path id="Path_90071" data-name="Path 90071" d="M39.508,0c-.036,0-.072,0-.107,0H13.877c-.036,0-.072,0-.107,0a.6.6,0,0,0-.316.176.651.651,0,0,0-.176.448V8.164a.664.664,0,0,0,.176.448.588.588,0,0,0,.423.186H39.4a.593.593,0,0,0,.423-.186A.637.637,0,0,0,40,8.164V.623a.649.649,0,0,0-.176-.444A.581.581,0,0,0,39.508,0Zm-2.78,2.166.4.427a.3.3,0,0,1,0,.41l-.326.344c.091.179.01.572.2.572h.423a.283.283,0,0,1,.273.289v.606a.283.283,0,0,1-.273.289h-.462c-.055.2-.374.41-.238.554l.3.317a.3.3,0,0,1,0,.41l-.4.427a.263.263,0,0,1-.387,0l-.326-.344c-.169.1-.54.01-.54.213v.448a.283.283,0,0,1-.273.289h-.573a.283.283,0,0,1-.273-.289V6.639c-.186-.059-.387-.4-.524-.251l-.3.317a.263.263,0,0,1-.387,0l-.4-.427a.3.3,0,0,1,0-.41l.326-.344c-.091-.179-.01-.572-.2-.572H32.34a.283.283,0,0,1-.273-.289V4.056a.283.283,0,0,1,.273-.289H32.8c.055-.2.374-.41.238-.554l-.3-.317a.3.3,0,0,1,0-.41l.4-.427a.263.263,0,0,1,.387,0l.326.344a2.005,2.005,0,0,1,.54-.213V1.742a.283.283,0,0,1,.273-.289h.573a.283.283,0,0,1,.273.289v.489c.186.059.387.4.524.251l.3-.317a.263.263,0,0,1,.387,0ZM34.886,3.247a1.161,1.161,0,0,1,1.126,1.191,1.128,1.128,0,1,1-2.253,0,1.158,1.158,0,0,1,1.126-1.191ZM0,22.175H7.952L7.633,36.737H0V22.175ZM9.206,35.56l.267-12.086,5.14.127a18.874,18.874,0,0,1,6.468,3.275l3.991.1c1.8.158,2.708,2.121.924,3.35-1.426,1.05-3.268.943-5.156.716a.9.9,0,1,0-.039,1.794c.472.052.99-.055,1.439-.045,2.363.055,4.32-.375,5.553-2.317l.632-1.463,6.006-2.968a2.729,2.729,0,0,1,2.793,4.611,76.913,76.913,0,0,1-13.4,7.909,8.551,8.551,0,0,1-9.831-.241L9.206,35.56Zm30.3-24.73c-.036,0-.072,0-.107,0H13.877c-.036,0-.072,0-.107,0a.6.6,0,0,0-.316.176.649.649,0,0,0-.176.444V18.99a.664.664,0,0,0,.176.448.588.588,0,0,0,.423.186H39.4a.593.593,0,0,0,.423-.186A.637.637,0,0,0,40,18.99V11.449a.649.649,0,0,0-.176-.444.6.6,0,0,0-.316-.176ZM15.824,13.167h1.5v4.1h-1.5v-4.1Zm4.144,0h1.5v4.1h-1.5v-4.1Zm4.144,0h1.5v4.1h-1.5v-4.1ZM15.824,2.338h1.5v4.1h-1.5v-4.1Zm4.144,0h1.5v4.1h-1.5v-4.1Zm4.144,0h1.5v4.1h-1.5v-4.1Z" fill="#004290" fill-rule="evenodd"/>
</svg>
