<svg id="database-icon" xmlns="http://www.w3.org/2000/svg" width="30.298" height="35.433" viewBox="0 0 30.298 35.433">
  <path id="Path_90084" data-name="Path 90084" d="M15.148,0C23.473,0,30.22,3.16,30.22,7.053s-6.751,7.053-15.073,7.053S.075,10.946.075,7.053,6.826,0,15.148,0ZM.075,23.6v5.415c2.682,9.525,29.177,7.685,30.148-.487v-5.41C28.9,32.086,2.194,32.732.075,23.6ZM0,9.5v5.289c2.682,9.3,29.324,8.045,30.3.066V9.568C28.972,18.331,2.119,18.421,0,9.5Zm0,6.834v5.415c2.682,9.525,29.324,8.239,30.3.066V16.4C28.972,25.376,2.119,25.468,0,16.333Z" fill-rule="evenodd"/>
</svg>
