<svg xmlns="http://www.w3.org/2000/svg" width="67" height="67" viewBox="0 0 67 67">
  <path id="package-distribute-icon" d="M53.74,60.758a6.685,6.685,0,0,1-4.81-2.053,7.172,7.172,0,0,1-1.041-8.532l-2.43-2.128a10.278,10.278,0,0,0,1.861-1.634l2.15,1.883a6.656,6.656,0,0,1,9.08.5,7.157,7.157,0,0,1,0,9.91,6.685,6.685,0,0,1-4.81,2.053ZM30.795,26.837H36.74l.1,7.514-3.19-2-3,1.956.144-7.465ZM24.05,22.65H43.437a2.6,2.6,0,0,1,1.871.8,2.761,2.761,0,0,1,.776,1.927V42a2.764,2.764,0,0,1-.778,1.921l0,0a2.606,2.606,0,0,1-1.865.8H24.05a2.6,2.6,0,0,1-1.871-.8l-.061-.069A2.757,2.757,0,0,1,21.4,42V25.377a2.761,2.761,0,0,1,.777-1.926,2.6,2.6,0,0,1,1.87-.8Zm19.387,1.986H24.05a.708.708,0,0,0-.507.219.75.75,0,0,0-.213.522V42a.759.759,0,0,0,.178.491l.033.032a.707.707,0,0,0,.508.218H43.437a.7.7,0,0,0,.506-.216l0,0a.748.748,0,0,0,.21-.521V25.377a.751.751,0,0,0-.212-.523A.707.707,0,0,0,43.437,24.636ZM27.06,51.081l-1.282,3.066c.092.07.182.143.27.218a7.177,7.177,0,0,1,2.492,4.819A7.252,7.252,0,0,1,26.994,64.4a6.849,6.849,0,0,1-4.679,2.567,6.763,6.763,0,0,1-5.063-1.591,7.177,7.177,0,0,1-2.492-4.819,7.251,7.251,0,0,1,1.545-5.216,6.849,6.849,0,0,1,4.678-2.567,6.7,6.7,0,0,1,2.628.258l1.037-2.479a14.779,14.779,0,0,0,2.411.529ZM51,26.3l2.367-.921a7.326,7.326,0,0,1-.183-2.34,1.264,1.264,0,0,1,.021-.223,7.17,7.17,0,0,1,2.488-4.7,6.765,6.765,0,0,1,5.071-1.577,6.849,6.849,0,0,1,4.674,2.576,7.256,7.256,0,0,1,1.531,5.224,7.177,7.177,0,0,1-2.5,4.814A6.765,6.765,0,0,1,59.5,30.737a1.183,1.183,0,0,1-.217-.022,6.852,6.852,0,0,1-4.562-2.563q-.193-.243-.365-.5l-2.409.937A12.285,12.285,0,0,0,51,26.3ZM38.347,14v.008l-.516,3.572q-1.185-.246-2.386-.39l.5-3.466a6.741,6.741,0,0,1-2.861-1.76,7.152,7.152,0,0,1-.069-9.833l.069-.077a6.656,6.656,0,0,1,9.546-.07l.074.07a7.151,7.151,0,0,1,0,9.905l0,.005A6.687,6.687,0,0,1,38.347,14ZM13.184,38.576l3.871-.776q.176,1.3.388,2.456l-3.839.77a7.145,7.145,0,0,1-.865,3.387,1.233,1.233,0,0,1-.1.171,6.8,6.8,0,0,1-4.082,3.181,6.6,6.6,0,0,1-5.049-.64A1.212,1.212,0,0,1,3.295,47,6.967,6.967,0,0,1,.232,42.81a7.17,7.17,0,0,1,.682-5.316A6.809,6.809,0,0,1,5.043,34.23a6.606,6.606,0,0,1,5.136.688l.025.014a6.929,6.929,0,0,1,2.98,3.643Zm7.228-16.933-2.749-2.357q-.233.183-.481.343a6.387,6.387,0,0,1-4.954.869,6.563,6.563,0,0,1-4.1-3,6.917,6.917,0,0,1-.844-5.1A6.748,6.748,0,0,1,10.19,8.172,6.388,6.388,0,0,1,15.143,7.3a6.563,6.563,0,0,1,4.1,3,6.944,6.944,0,0,1,.035,7.147l2.973,2.548A13.083,13.083,0,0,0,20.412,21.643Zm-7.655-3.568a4.047,4.047,0,0,0,3.139-.548,4.264,4.264,0,0,0,1.841-2.67,4.384,4.384,0,0,0-.532-3.234,4.148,4.148,0,0,0-2.592-1.9,4.048,4.048,0,0,0-3.139.548,4.264,4.264,0,0,0-1.841,2.67,4.385,4.385,0,0,0,.532,3.234A4.148,4.148,0,0,0,12.758,18.075ZM4.611,44.915a4.268,4.268,0,0,0,3.326.446,4.387,4.387,0,0,0,2.624-2.036,1.172,1.172,0,0,1,.077-.137,4.626,4.626,0,0,0,.4-3.361,4.5,4.5,0,0,0-1.975-2.7,1.2,1.2,0,0,1-.134-.08,4.26,4.26,0,0,0-3.263-.411A4.393,4.393,0,0,0,3,38.74a4.623,4.623,0,0,0-.436,3.428,4.488,4.488,0,0,0,2.039,2.744l.006,0ZM34.735,3.871a4.62,4.62,0,0,0,.058,6.33,4.3,4.3,0,0,0,6.2,0,4.62,4.62,0,0,0,0-6.389l-.054-.059a4.3,4.3,0,0,0-6.146.059Zm21.856,22.7a4.456,4.456,0,0,0,3.036,1.68h0a4.409,4.409,0,0,0,3.3-1.032,4.671,4.671,0,0,0,1.631-3.131,4.729,4.729,0,0,0-1-3.4,4.46,4.46,0,0,0-3.039-1.68,4.409,4.409,0,0,0-3.3,1.032,4.667,4.667,0,0,0-1.631,3.128v0a4.727,4.727,0,0,0,1,3.4ZM18.783,63.457a4.422,4.422,0,0,0,6.35-.634,4.734,4.734,0,0,0,1.007-3.405,4.669,4.669,0,0,0-1.622-3.135,4.414,4.414,0,0,0-3.306-1.037,4.458,4.458,0,0,0-3.044,1.671,4.735,4.735,0,0,0-1.007,3.406A4.671,4.671,0,0,0,18.783,63.457ZM50.64,56.943a4.294,4.294,0,0,0,6.2,0,4.613,4.613,0,0,0,0-6.386,4.294,4.294,0,0,0-6.2,0,4.613,4.613,0,0,0,0,6.386Z" transform="translate(0)" fill="#004290"/>
</svg>
